<?xml version="1.0" encoding="UTF-8"?>
<svg id="Layer_2" data-name="Layer 2" xmlns="http://www.w3.org/2000/svg" viewBox="0 0 774.81 722.27">
  <defs>
    <style>
      .cls-1 {
        fill: none;
        stroke: #000;
        stroke-linecap: round;
        stroke-linejoin: round;
        stroke-width: 2px;
      }

      .cls-2 {
        stroke-width: 0px;
      }
    </style>
  </defs>
  <g id="Layer_2-2" data-name="Layer 2">
    <g>
      <g>
        <path class="cls-2" d="M370.21,666c.02.19-6.65.19-6.65.19-3.81,1.13-7.75,1.51-11.63,2.19-3.57.63-7.18.16-10.59.91-8.52,1.87-17.08.22-25.79,1.07-.13.37-.32.95-.57,1.68h-2.53c.3-.74.61-1.49,1.05-2.57-6.83-.78-13.42-1.53-20.42-2.32.53,2.48.98,4.59,1.5,7.04,5.8,0,11.77.26,17.71-.08,5.55-.31,11.06-1.25,16.72-1.93.11.59.2,1.05.32,1.65-11.08,2.83-22.43,2.39-33.81,3.63-1.36,1.94,0,4.08,1.14,5.41,1.65,1.93,4.63,1.84,6.84,1.18,3.42-1.01,7.01-1.37,10.3-2.86,2.8-1.27,5.7-2.33,8.5-3.61,1.13-.52,2.05-.79,3.25.55-3.11,2.33-6.84,3.35-9.98,5.34-3.22,2.04-7.11,2.19-10.64,4.39,3.24.47,6.26.6,9.1,1.39,6,1.65,12.07.66,18.09.91,1.39.06,2.46.27,3.04,2.07h-25.52c5.38,4.55,9.06,9.7,11.2,15.39,1.72,4.54,4.12,9.07,4.54,14.36h-4.7c-.73-1.39-2.14-2.96-2.33-4.66-.34-3.07-2.08-5.61-2.65-8.39-.71-3.48-2.38-6.4-3.8-9.46-1.57-3.4-4.26-5.95-7.63-7.77-2.16-1.17-4.3-2-7.22-1.19-.89,2.54-2.26,5.24-2.74,8.08-.84,4.96-2.83,9.62-3.26,14.72-.2,2.33-1.83,4.57-1.93,7.18-.02.6-1.27,1.37-2.09,1.65-.84.29-1.85.06-2.9.06,1.15-4.87,2.37-9.22,3.22-13.68,1.06-5.58,2.67-11.12,5.3-16.26.26-.51.46-1.06,1.06-2.47-6.04,2.41-11.35,4.56-17.11,3.16.83-.99,3.54-2.52,5.12-2.73,3.42-.46,6.66-1.5,9.74-3.03.57-.28,1.02-.78,1.68-1.3-2.23-3.44-6.03-4.21-9.36-5.49-3.04-1.16-6.24-1.85-8.88-3.94-.43-.34-1.39.03-1.85-.3-.81-.58-1.43-1.44-1.91-2.48,7.08,3.05,14.81,3.92,21.83,7.94v-4.2c-4.53-1.07-9.22-1.75-13.59-3.32-4.04-1.44-7.95-3.51-11.53-5.89-3.86-2.56-7.21-5.9-10.92-8.71-2.09-1.59-4.26-3.25-7.53-3.33-1.2,1.62-2.38,3.56-3.89,5.18-3.72,3.98-8.3,6.87-13.33,8.79-4.62,1.76-9.18,3.98-14.31,4.08-1.91,2.39-5.35-.72-7.17,2-.78,1.52-1.56,3.03-2.5,4.86,0,1.61-.07,3.61.01,5.6.19,4.53.1,9.04-2.07,13.14-1.15,2.18-.79,4.39-1.01,6.84,4.79,4.79,9.66,9.66,14.96,14.96-3.49,1.16-4.14-1.7-5.79-2.5-1.83-.89-3.26-2.58-4.89-3.89-1.61-1.3-3.24-2.56-4.86-3.84-1.42,1.9-2.34,5.8-2.41,10.53-.42.1-.86.26-1.31.28-.46.03-.93-.08-1.51-.14-.45-4.61.83-8.87,1.56-13.25.67-4.05,2.43-7.9,2.33-12.08,0-.33-.14-.76.02-.99,2.7-3.92,2.09-8.38,1.91-12.68-.17-3.91.92-7.01,4.05-9.16.13-2.41-.14-4.6.88-6.82.47-1.01.78-2.04,1.61-2.83,1.7-1.62,2.12-3.68,2.66-5.92.9-3.72.82-7.4.94-10.79,1.07-2.13,1.87-4.1,2.41-5.44-.85-1.05-1.52-1.87-2.34-2.88,0,2.8,0,5.4-.07,8.32-2.22-.03-.25,2.33-1.92,3.21-1.04.55-1.35,2.38-2.18,3.49-1.24,1.68-2.75,3.17-3.95,4.88-2.03,2.89-3.51,6.01-3,9.46-3.02,3.83-6.87,5.38-11.39,5.67-1.21.08-2.56,1.15-3.55.83-1.23-.4-2.12-.05-3.22,0-2.4.13-4.33-1.55-6.26-2.83-.95-.63-1.68-1.6-2.49-2.44-1.76-1.82-3.83-2.88-6.42-2.6-2.78.3-4.96-.74-6.91-2.67-1-.99-2.42-1.55-3.42-2.53-1.95-1.92-3.75-3.99-5.36-5.73,0-3.38.1-6.21-.02-9.04-.26-6.01,1.8-11.44,4.03-16.84,2.53-6.12,5.33-12.14,7.57-18.36,2.09-5.8,4.15-11.7,3.43-18.08-.72-6.41.48-12.8,1.25-19.05.8-6.46.87-13.25,3.75-19.37,1.8-10.99,5.73-19.53,9.07-26.74,1.24-2.68,3.25-5,5.16-7.86-2.34-2.34-4.83-4.72-7.19-7.22-2.51-2.65-4.77-5.49-5.32-9.29-1.64-.98.65-1.39.34-2.31-.25-.74-.05-1.63-.05-2.43,2.76-2.53,4.91-5.75,9-6.81,0-.74.29-1.7-.05-2.32-2.14-3.89.33-6.64,2.49-9.15,1.99-2.31,4.54-4.15,6.97-6.03.94-.73,2.49-.72,3.33-1.51,2.31-2.16,4.71-3.96,5.81-7.49,3.15-10.08,6.19-15.39,11.27-22.48,3.11-4.34,6.35-8.57,10.24-12.27,2.67-2.55,5.67-4.27,9.2-5.59,2.74-1.02,5.51-1.97,8.66-3.39.1-2.27-.16-5.32,1.97-6.89,6.6-1.99,12.85-1.24,19.02-1.67,2.5-.17,5-.93,7.59-.91,2.37.01,4.54-1,6.77-1.7.9-.29,1.93-.24,2.9-.25,4.17-.02,8.33,0,12.5-.02.77,0,1.55-.1,2.36-.48-4.74-.43-9.11-2.11-13.56-3.47-.07-.02-.22.23-.35.33-.23.19-.47.37-.27.22-2.94-.93-5.53-2.13-8.23-2.52-6.69-.95-13.07-3.12-19.62-4.6-4.55-1.03-9.06-2.23-13.55-3.51-1.76-.5-4.14-.95-4.94-2.23-1.06-1.7-2.41,1.21-2.42-.42-.02-1.69-1.32-1.12-1.95-1.63-6.14-4.93-10.38-11.15-12.64-18.69-.58-1.92-1.07-3.87-1.7-6.19-3.15,1.69-6.39,1.3-9.56,1.15-3.03-.15-6.24,1.01-9.09-.95-3.63.69-6.47-1.42-9.19-3.11-2.84-1.76-4.91-4.54-7.09-7.2-3.25-3.95-5.22-8.62-8.23-12.67-.77-1.04-.63-2.72-1.15-4-2.52-6.28-2.71-12.85-2.45-19.47.04-1.04.52-2.11,1.01-3.07.98-1.93,2.1-3.78,3.13-5.61-3.86-4.99-9.43-7.37-14.12-10.88-4.04-3.02-8.25-5.93-11.33-9.93-2.08-2.7-3.28-6.08-5.73-8.59-.37-4.27-3.91-7.47-4.02-11.84,0-.19-.37-.37-.98-.92,0,3.32.16,6.29-.05,9.22-.19,2.71,2.26,5.15.62,8.06-3.5-3.33-6.27-7.01-8.73-11.21-3.9-6.65-5.94-13.5-5.84-21.11.03-2.17.03-4.33,0-6.5-.09-6.27,1.7-12.11,3.99-17.85.1-.26-.06-.63-.1-1-.87-.62-.95.47-1.39.72-.42.24-.9.62-1.05,1.05-1.36,3.93-4.36,7.09-4.65,11.65-.15,2.3-.62,4.71-.84,7.09-.16,1.68-.79,3.32-1.42,5.77-.91-2.82-.56-5.02-.47-7.12.1-2.23-.53-4.45.56-6.75.91-1.93.87-4.29,1.4-6.42.56-2.25,1.2-4.5,2.01-6.66.75-2.01,1.77-3.93,2.7-5.88.93-1.95,1.81-3.92,2.84-5.82,1.03-1.89,2.22-3.7,3.67-6.11-1.57.48-2.64.95-3.76,1.12-1.14.17-2.33.03-3.49.04-9.01.02-16.69-3.09-23.06-9.54-6.02-6.1-9.2-10.36-12.27-17.34-1.12-2.53-1.49-5.48-2.97-7.74-1.63-2.51-.79-5.65-2.69-7.91.67-2.98-1.04-5.67-1.01-8.59.05-6.17-.29-12.35.13-18.49.25-3.73.88-7.5,1.68-11.22.45-2.11,1.2-4.29,1.28-6.54,0-.28.92-.52,1.43-.79.25.56.48.83.49,1.12.13,2.29-.41,4.89.52,6.78.97,1.98-.67,4.42,1.5,5.89-.24,3.93,1.86,7.22,2.81,10.82,1.19,4.52,3.82,8.12,6.09,12,1.97,3.36,4.73,5.29,8.63,5.55.33.02.85-.11.96.05,2.15,3.19,5.44,1.96,8.21,1.84,2.74-.11,5.5-.93,8.07-2.15,5.53-2.62,10.46-6.02,14.64-10.57,3.7-4.03,7.74-7.76,11.95-11.93-.99-.1-1.65-.36-2.2-.19-2.08.61-4.06.43-6.2.08-2.21-.36-4.18-1.16-6.26-1.85-6.67-2.22-10.85-7.36-14.56-12.77-2.51-3.66-4.77-7.76-5.89-12-.87-3.28-1.67-6.7-2.38-10.07-.75-3.55-.7-7.06-.93-10.61-.14-2.15-.79-4.28-1.42-7.45,1.42.87,2.29,1.1,2.41,1.53.7,2.54,3.14,3.17,4.91,4.33,4.35,2.86,9.11,4.88,14.5,4.79,2.33-.04,4.68.12,7-.04,2.21-.16,4.47-.38,6.57-1.02,3.09-.94,6.08-2.2,9.06-3.45,2.56-1.08,5.07-2.27,7.53-3.53,2.34-1.2,4.56-2.67,6.92-3.83,1.37-.68,2.92-.99,4.67-1.55-2.05-1.8-4.25-2.59-6.83-2.58-6.33.03-12.67.01-19,.01h-4.93c-.11-2.14,1.84-1.85,2.81-2.59,4.13-3.15,8.25-6.32,12.8-8.9,5.52-3.13,10.86-5.03,16.63-4.48,1.01.1,1.97.68,3.72,1.31-.5-1.27-.73-1.91-1-2.54-1.25-2.89-2.25-5.85-2.3-9.04-.04-2.33.09-4.67-.03-7-.3-5.69,2.06-10.73,3.67-15.98,2.27-7.37,7.21-13.32,10.35-20.22.29-.63.91-.92,2.71-1.36-.59,2.85-1.73,5.56-1.77,8.55-.03,1.87-.74,3.71-.92,5.59-.61,6.35,1.04,12.47,1.98,18.67,1.8,2.2,2.15,5.06,3.77,7.48,3.89,5.8,8.88,10.12,14.85,13.49,1.62.91,3.33,1.67,5.11,2.56,1.15-1.26,1.24-3.22,1.32-5.29.18-4.9,1.67-9.57,3.37-14.09,2.4-6.4,5.6-12.43,9.57-18.04,2.19-3.1,4.99-5.73,6.71-9.21.42-.84,1.8-1.17,2.69-1.81,3.72-2.69,7.35-5.52,11.16-8.08,2.3-1.55,4.85-2.74,7.34-3.99.5-.25,1.24-.04,2.79-.04-4.29,3.42-8.66,5.05-12.3,7.91-3.91,3.07-7.46,6.46-10.71,10.1-3.07,3.43-6.12,7.07-8.01,12.26,2.94-2.32,5.48-3.94,7.53-6.03,4.41-4.5,10-7.19,15.35-10.11,7.17-3.91,14.92-6.62,22.7-9.13,1.03-.33,2.23-.43,3.05-1.05,1.46-1.11,2.91-1.1,4.94-.68-.42.82-.62,1.58-1.09,2.06-3.02,3.1-6.18,6.08-9.15,9.23-2.44,2.6-4.67,5.38-6.96,8.11-.14.17.05.62.12,1.26,2.74-1.91,5.31-3.8,7.98-5.54,6.79-4.44,14.56-9.05,25.84-12.45,4.21-1.27,8.26-3.06,12.78-2.94,9.06-2.96,18.45-2.32,27.66-1.81,6.16.35,12.4,1.56,18.38,3.72,4.8,1.74,9.88,2.69,14.81,4.1,5.21,1.49,10.38,3.1,15.57,4.66.14.04.26.32.36.31,4.26-.43,8.39,2.06,12.56.91,3.06-.84,6.1-.52,9.1-.99,2.71-.42,5.05-2.21,7.75-2.98,1.44-.41,3.17-1.25,3.91-2.43,2.1-3.34,5.83-4.79,8.24-7.84,1.9-2.4,3.4-4.93,4.91-7.52.43-.74.95-1.42,1.56-2.32,1.03,3.11.01,5.67-.52,8.32-.54,2.65-1,5.38-.97,8.08.03,2.79-.65,5.4-1.05,8.09-.4,2.68-.68,5.49-1.27,8.02-.59,2.52-.75,5.08-2.09,7.41.34.1.68.21,1.01.31,2.64-5,5.28-10.01,8.06-15.28.42.35,1.26.83,1.2,1.05-.81,2.82-1.82,5.58-2.62,8.4-1.73,6.07-5.04,11.33-8.57,16.43-.84,1.22-2.5,1.87-4.01,2.95,3.6,1.19,6.97,2.3,10.34,3.41,1.03.34,2.19.47,3.06,1.04,3.67,2.38,7.65,4.08,11.79,5.35,2.7.83,5.38,1.83,8.33,1.65,3.4-.21,6.61,1.55,10.09.99,6.17-.99,12.43-1.62,18-4.84.35-.2.88-.08,1.86-.14-1.39,3.87-4.9,5.47-6.96,8.23-2.14,2.87-5.45,4.19-8.06,6.85,2.89-.38,5.78-.76,9.26-1.21-3.16,2.73-6.85,3.59-17.95,4.43,1.9,1.37,3.49,2.28,4.79,3.51,3.61,3.43,6.81,7.13,8.93,11.78,1.92,4.21,4.52,8.09,6.3,12.39,1.82,4.41,3.7,8.8,5.46,13.24,1.62,4.06,3.75,7.79,5.99,11.55,1.78,2.99,4.41,5.69,5.06,9.38.15.88.71,1.71,1.17,2.5,4.69,8.06,7.67,16.86,10.43,25.66,1.1,3.51,1.76,7.33,2.58,10.99.64,2.86.08,5.82,1.16,8.48,1.18,2.91.42,5.84.58,8.75.16,2.99.17,6.01,0,9-.18,3.2-.45,6.42-1.02,9.58-.53,2.99-1.49,5.91-2.88,8.8v-13.74c-.24-.02-.48-.05-.72-.07-.12.79-.41,1.6-.32,2.37.72,5.77-.67,11.43-1.25,17.07-.65,6.23-2.78,12.28-5.64,18.11-3.51,7.15-7.87,13.56-12.89,19.66-3.01,3.65-5.64,7.61-8.58,11.62,1.21,1.64,2.32,3.15,3.45,4.66,2.41,3.23,3.44,7.01,3.83,10.89.31,3.14,0,6.33.08,9.49.15,5.49-1.32,10.78-3.41,15.59-1.57,3.61-2.81,7.47-5.27,10.87-2.64,3.66-5.86,6.2-9.48,8.56-5.06,3.29-10.68,4.85-16.51,6.06-3.2.67-6.35,1.79-8.6,4.61-1.55,1.94-3.47,3.58-5.2,5.32h-2.06c-.17.28-.49.57-.46.81.41,3.15-2.17,5.6-2.03,8.67-1.56,1.38-1.25,3.48-1.96,5.19-1.09,2.65-2.15,5.24-4.39,7.19-1.38,1.2-2.53,2.67-3.93,3.85-1.56,1.3-2.47,3.19-5.1,3.5-1.68.2-3,2.69-5.28,2.8-.44.02-1.01.16-1.29.47-1.59,1.73-3.73,2.15-5.83,2.87-3.49,1.19-6.91,2.65-10.25,4.21-6.45,3.01-13.3,4.89-19.93,7.4-4.18,1.59-8.5,2.81-12.74,4.24-2.63.89-5.23,1.85-7.81,2.77-.8,1.56-1.57,3.08-2.49,4.89,3.51-.2,6.84.99,10.36,1.35,3.13.32,6.45.84,9.57,2.08,2.3.91,4.72,1.58,6.76,2.97,2.12,1.45,3.97,3.28,5.99,4.89,1.11.89,2.21,1.86,3.48,2.45,7.67,3.61,13.25,9.45,17.83,16.38,2.16,3.26,4.34,6.52,6.32,9.89.85,1.44,1.01,3.28,1.85,4.72,2.42,4.15,4.31,8.67,7.02,12.55,2.17,3.1,4.15,6.39,6.59,9.38,3.91,4.79,8.62,8.26,13.68,11.6,2.2,1.45,3.64,4.06,5.55,6.28v12.16c10.92,6.35,12.36,15.52,7.44,20.49-4.71-.66-8.68.42-11.5,4.93-2.55,4.08-2.28,7.95-.26,12.39,1.41-1.17,2.69-2.23,3.96-3.28-1.52,3.82-2.21,7.62-1.27,12.43.35-1.07.52-1.49.61-1.93.1-.46.11-.93.21-1.78,1.88,1.35,2.26,4.07,4.74,4.17,2.42.1,3.93-1.64,5.7-2.88.24.59.47,1.16.94,2.31,1.22-6.54-.4-12.3-1.55-18.56.92.26,1.6.45,2.82.8,1.13-1.42,2.99-3.01,3.89-5.03,2.5-5.64,6.78-10.11,9.67-15.49,2.52-4.69,5.75-8.97,8.71-13.36,4.22-6.25,8.26-12.61,12.45-18.88,4.26-6.37,8.36-12.87,12.63-19.21,4.48-6.65,8.99-13.32,13.52-19.96,2.99-4.38,5.75-8.96,8.7-13.34,3.07-4.56,6.24-9.11,9.35-13.67,2.13-3.12,4.11-6.34,6.4-9.34,2.93-3.83,6-7.57,9.19-11.19,2.31-2.62,4.72-5.22,7.44-7.4,4.77-3.82,8.75-8.47,13.44-12.29,2.28-1.85,4.28-3.97,6.55-5.79,2.03-1.63,4.18-3.12,6.19-4.78,2.2-1.82,4.31-3.76,6.66-5.84h3.01c.14.39.29.67.33.97.48,3.3-.89,6.2-1.98,9.17-1.17,3.18-2.17,6.43-3.38,9.6-1.7,4.46-3.58,8.85-5.27,13.32-1.86,4.91-4.25,9.6-6.2,14.43-2.19,5.46-4.78,10.71-7.37,15.94-2.41,4.88-5.67,9.35-8.76,13.87-2.68,3.93-5.9,7.51-8.37,11.56-2.29,3.75-4.63,7.43-7.13,11.04-4.2,6.07-8.3,12.22-12.39,18.36-4,6.02-8.1,12-12.27,17.88-5.93,8.34-11.22,17.11-17.24,25.34-3.09,4.23-5.44,9.06-9.36,12.69-.51.48-.62,1.39-1.07,2.47.66.93,1.71,2.07,2.36,3.42.6,1.24.89,2.66,1.07,4.04.16,1.21.11,2.49-.08,3.7-.48,3.12-1.76,6.12-1.56,9.34.38,6.32-1.22,12.32-3.05,18.25-1.29,4.2-3.37,8.15-6.41,11.29-1.83,1.89-3.07,4.3-5.47,5.75-2.18,1.32-3.81,3.58-6.03,4.81-5.3,2.95-10.83,5.25-17.06,2.68-.28-.12-.66-.02-1.01-.02-2.49,1.14-3.56,3.53-5,5.63-2.12,3.09-3.46,6.9-8.36,8.37.08,0-.77-.12-1.57.02-5.24.92-9.33-1.75-13.04-4.68-2.49-1.97-4.81-4.27-6.54-7.21-2.84-4.83-3.17-5.45-.47-10.65,1.08-2.08,2.38-4.05,3.69-6.25-8.17-1.37-14.21-6.67-19.66-12.76-1.44-1.61-2.75-3.53-3.47-5.54-.69-1.93-2.97-2.87-2.73-5.45.12-1.29-1.17-2.8-2.01-4.08-.4-.62-1.19-1.21-1.9-1.37-4.47-.99-5.12-4.8-5.85-8.24-.5-2.38-.1-4.94-.1-7.33-4.71-4.24-7.41-9.53-9.51-15.3.07,0-.07-.04-.15,0-.13.08-.32.23-.32.35-.02,8-.01,15.99-.01,23.59-1.44,2.96-3.12,5.24-6,6.36,0,5.32.1,10.65-.04,15.98-.09,3.45,1.32,6.22,3.58,8.51,3.25,3.29,5.03,7.04,4.41,11.67-.22,1.65-.94,3.24-1.61,5.43.74.92,1.79,2.49,3.09,3.81,2.54,2.56,3.5,5.92,4.46,9.15.73,2.47-1.15,4.77-1.99,7.46,1.18,1.14,2.68,2.25,3.72,3.69,3.48,4.78,3.13,14.32.19,18.62-1.71,2.49-3.37,4.97-5.25,7.36-1.75,2.22-2.96,5.19-3.43,8-.55,3.29-.82,7.01.96,10,1.67,2.81,2.59,5.56,3.05,8.8.41,2.89,1.61,5.66,1.94,8.68.34,3.07,1.36,6.07,2.15,9.08,1.51,5.76,3.54,11.37,3.87,17.43.14,2.48,1.36,4.91.68,7.68h-2.35c-1.73-5.87-2.44-12.11-4.22-18.1-1.8-6.07-1.47-12.53-3.64-18.89-2.79,1.65-5.95,1.55-8.86,1.02-2.65-.48-5.14-2.02-7.6-3.3-1.77-.92-3.37-2.17-5.15-3.34.09-.3.23-.75.42-1.39,6.42,2.42,11.92,7.58,19.73,5.87-.52-2.13-2.93-2.19-3.79-3.7-5.61-1.19-9.61-5.09-14.14-8.17-2.27-1.54-3.91-3.07-4.2-6.02.97.36,1.84.71,2.56,1.26,2.17,1.67,3.66,3.98,6.24,5.35,4.81,2.54,9.33,5.62,14.3,8.68-.8-4.35-2.71-6.63-6.52-8.3-4.82-2.11-10.05-4.09-13.01-8.99-1.31.82-3.52-1.11-3.56,2.01ZM268.23,662.19c-3.38-2.01-3.72-2.08-6.93-1.44,2.06-.02,2.64,2.94,4.93,2.44,6.37,4.7,13.7,7.32,21.16,9.6,1.47.45,3.11.33,4.97.49-.76-2.67-1.38-4.84-2.03-7.13-3.9.2-7.15-1.17-10.52-1.72-3.89-.63-7.52-2.59-11.57-2.25ZM515.23,518.19c.52-.35,1.28-.59,1.52-1.08,1.65-3.45,4.13-6.3,6.26-9.41,4.07-5.94,7.78-12.13,12.11-17.9-.25-1.97,2.82-2.43,2.11-4.61.87-.7,2.15-1.23,2.54-2.14,1.57-3.67,4.22-6.58,6.43-9.8,4.53-6.57,8.9-13.24,13.34-19.87,2.86-4.27,5.72-8.53,8.8-13.11-1.21-.49-2.34-.95-3.56-1.44-.7,1.59-1.01,3.07-1.86,4.09-3.52,4.26-6.51,8.87-9.51,13.5-4.85,7.5-10.03,14.79-15.08,22.16.25,1.97-2.82,2.42-2.11,4.61-.67.62-1.55,1.13-1.96,1.89-1.94,3.58-4.43,6.84-6.76,10.1-4.29,6-8.3,12.17-12.26,18.37-.75,1.17-2.53,1.78-2.01,3.65.21,1.57-2.74.6-2.05,2.55-2.35,2.96-4.25,6.29-6.51,9.21-3.69,4.77-6.42,10.17-10.36,14.75-1.29,1.5-1.99,3.5-3.22,5.74,4.6-1.88,5.15-2.36,7.15-5.37,2.34-3.53,4.79-6.99,7.11-10.53,3.33-5.09,6.59-10.24,9.88-15.36ZM491.01,592.86c.4-.47,1.41-1.48,2.2-2.64,1.59-2.32,3.03-4.74,4.59-7.08,1.41-2.12,3.31-7.83,3.45-10.07.26-4.19.65-8.38.98-12.57.03-.32.04-.64.14-.94.81-2.49,1.69-4.97,2.45-7.47.87-2.85.78-5.57-1.04-7.56-2.79,2.79-5.57,5.57-7.67,7.67-5.86,0-10.36.09-14.85-.05-1.6-.05-2.64.94-3.9,1.48-1.25.53-1.17,1.8-1.18,2.99,0,.37-.6.73-.89,1.04,2.3,3.36,6.32,3.12,9.57,4.54,5.26-.76,10.34,1.24,15.57,1.02.26-.01.53.31.86.51-.08.43-.17.89-.26,1.35-3.14.41-6.29-.52-9.16,1.1-1.34.76-2.73,1.45-4.16,2-3.74,1.43-7.78,1.3-11.67,1.91-2.04.32-4.02.44-5.7,1.6,1.09.47,2.7.66,3.24,1.52.97,1.54,2.54.49,3.4,1.21.51,1.14.94,2.13,1.29,2.9-1.24,3.14-4.23,1.09-6.66,2.69,3.59.45,6.66,1.43,9.52,1.02,2.88-.41,5.91-.61,8.7-1.8,2.64-1.13,5.36-2.06,8.51-3.24-4.55,5.57-8.89,7.84-15.08,8.24-.75.05-1.46.5-2.21.66-.77.16-1.89.56-2.29.21-2.08-1.84-4.7,0-6.6-1-2.24-1.17-4.37-.65-6.44-.92-1.02,1.09-1.89,2.02-2.98,3.2,1.07.76,1.82,1.75,2.58,1.75,3.01,0,5.09,1.48,7.05,3.79-1.44.21-2.75.4-5.09.73,3.59.65,6.05,1.31,8.54,1.51,4.18.33,8.29-.05,12.18-1.89.59-.28,1.57.29,2.26.67-2.67,2.58-5.83,3.85-9.29,4.24-4.87.55-9.64-.49-14.42-1.21-.33-.05-.61-.45-1.07-.81-.54,1.7-1,3.14-1.44,4.52,1.63.76,2.83,1.54,4.14,1.89,1.52.41,3.14.44,4.72.64.32.04.77-.06.93.12,1.27,1.32,2.3,1.07,3.84.14,1.25-.75,3.09-.44,4.62-.82,4.01-.99,5.71-4.54,7.95-7.46.16-.21.02-.65.8-1.31ZM380.72,579.34c-.17-2.11-.39-4.06-.47-6.02-.08-2-.02-4-.02-6,0-2.17-.45-4.46.13-6.46.55-1.9-1.94-3.47-.15-5.2-1.66-2.69-1.77-5.9-2.89-8.8-1.17-3.03-1.24-6.49-2.5-9.46-1.94-4.6-2.27-9.52-3.42-14.26-1.13-4.67-.84-9.68-1.17-14.54-.03-.5.2-1.15-.04-1.47-1.54-2.05-1.09-4.42-.89-6.6.22-2.36-.9-4.38-1.07-6.59-.23-3.04.61-6.2-1.01-9.08.56-5.25-1.08-10.4-.9-15.58.22-6.4-1.82-12.57-.96-19.73-2.35,2.35-4.07,4.06-5.78,5.79-5.21,5.26-11.47,8.65-18.49,10.89-4.99,1.6-10.16,2.1-15.27,2.91-1.79.28-3.67.18-5.49,0-1.88-.17-3.74-.95-5.58-.88-2.32.09-4.52-.34-6.57-1.13-6.91-2.66-13.74-5.53-18.82-11.3-1.14-1.29-2.43-2.45-4.41-4.44.35,4.19.61,7.33.89,10.63-.19.04-.65.12-1.27.24-.45-2.37-1.13-4.66-1.27-6.99-.16-2.57-1.16-4.87-1.74-7.3-1.03-4.3-2.85-8.45-2.34-13.04.13-1.15.03-2.33.02-3.5-.04-4.13,1.27-7.62,3.93-10.91,1.5-1.85,3.28-3.35,5.38-5.09q-6.99-.68-10.91.95c-.49,2.3-1.27,4.44-1.35,6.61-.26,6.87.37,13.76-1.02,20.59-.5,2.49.53,5.14-.96,7.62-.51.86-.56,2.69.02,3.36,1.05,1.21.73,2.42.93,3.67.19,1.22.85,2.38.93,3.59.25,3.57,1.34,6.89,2.78,10.1-.27.27-.5.5-.74.74.59.59,1.18,1.18,1.76,1.77.24,1.57.28,3.2.74,4.7,2.43,7.8,5.26,15.47,8.09,23.14,1.53,4.15,3.01,8.32,4.89,13.53-1.43-.86-2.18-1.04-2.45-1.51-1.61-2.83-2.27-6.06-3.53-9.03-1.56-3.69-3.3-7.27-4.68-11.07-1.36-3.73-3.19-7.34-4.43-11.15-2.1-6.5-4.36-12.96-5.45-19.75-.12-.76-.91-1.41-1.95-2.93,0,1.78.18,2.62-.03,3.36-1.85,6.56-3.66,13.13-5.7,19.63-1.47,4.7-2.91,9.47-5.01,13.91-2.11,4.46-2.9,9.55-6.26,13.41-.09,4.36-4.19,6.89-5,10.92-3.63,3.37-3.64,7.98-3.91,12.34-.17,2.83,0,5.96,1.09,8.5.82,1.91.74,3.92,1.71,5.8,2.76,5.33,4.24,11.22,7.03,16.58.79,1.52.73,3.49,1.06,5.25-2.13-2.71-3.58-5.61-5.08-8.48-1.14-2.2-2.33-4.37-3.54-6.53-.38-.69-1.26-1.27-1.31-1.94-.34-4.89-3.65-8.99-3.25-14-2.47.02-1.81,2.15-2.74,3.09-.68.69-.89,1.97-1.03,3.02-.17,1.31.08,2.67-.07,3.99-.17,1.53-1.26,3.4-.7,4.45.7,1.32.7,2.47.7,3.72,0,3.37.97,6.52,2.01,9.67,1.22,3.67,2.46,7.33,3.46,11.06.2.75.32,1.53.56,2.27.18.56.5,1.07.76,1.6-1.67-.64-3.29-1.57-3.64-2.85-.47-1.73-1.39-3.11-2.12-4.64-2.19-4.6-4.22-9.27-5.38-14.38-1,2.35-1.83,4.62-2.92,6.77-.87,1.73-1.15,3.15.22,4.83.96,1.17,1.48,2.7,2.17,4.08,2.9,5.84,6.93,10.96,11.09,15.85,3.39,3.98,5.99,8.49,9.97,12.27-.82.15-1.26.37-1.42.24-10.29-8.72-17.76-19.73-25.37-31.62-.9,1.19-1.75,2-2.2,2.99-2.44,5.36-5.3,10.58-5.7,16.64-.09,1.43-.41,2.86-.48,4.29-.09,1.83,0,3.66-.03,5.5-.02,1.74-.08,3.47-.14,5.99-.89-1.78-1.75-2.73-1.79-3.72-.15-4.05-1.58-7.94-1.11-12.08.65-5.68,1.98-11.03,5.32-15.82,1.53-2.2,2.42-4.84,4.64-6.56.98-4.81,4.17-8.62,5.85-13.07.82-2.17,2.27-4.72.93-7.29-1.37,1.62-2.76,3.26-4.01,4.73h-5.64c-.65-1.44-1.74-2.93-1.95-4.54-.22-1.73.4-3.57.73-5.93-.86,1.1-1.81,1.75-1.76,2.32.32,3.94-1.65,7.39-2.21,11.15-.59,3.95-1.72,8.01-3.28,11.6-1.43,3.3-1.15,7.16-3.59,10.02-.93,7.15-3.57,13.89-5.21,20.87-.97,4.15-1.21,8.27-.5,12.06.93,4.91,3.1,9.65,5.06,14.37h2.19c1.05-2.08,1.98-4.03,3.02-5.92.31-.56.92-.96,1.39-1.43-4.61-6.02-4.55-7.44-3.37-14.62.46.12.9.24,1.42.37,0,1.26-.16,2.44.04,3.56.29,1.68.33,3.81,1.38,4.86,2.78,2.83,4.1,7.12,8.32,8.52,1.64,2.34,4.41,3.05,6.59,4.6,3.82,2.71,7.78,5.18,12.08,7.05,5.51,2.4,10.8,5.29,16.7,6.77,3.43.86,6.7,2.36,10.12,3.29,2.4.65,4.84,1.02,7.22,1.88,2.36.85,5.21-.62,7.52,1.17,4.24-.27,8.29,1.71,12.59,1.03,1.3-.2,2.84-.43,3.95.07,4.48,2.04,9.12.28,13.63.9,2.17-1.68,4.75-1.16,7.07-.9,2.71.3,5.02-1.34,7.59-1.07,5.4.58,10.34-2.21,15.67-2.03,3.2-1.75,6.97-1.6,10.24-3.03,3.25-1.41,6.64-2.56,9.93-3.77,4.41-1.62,8.55-3.66,12.51-5.99,4.08-2.4,7.81-5.44,11.49-8.45,1.42-1.16,2.27-3.02,3.38-4.56,0-6.34-1.29-9.12-6.6-14.17-8.09,8.53-17.22,16.11-23.99,26.21-1.09-2.44.34-3.95,1.33-5.45,2.54-3.83,5.04-7.65,7.93-11.28,3.52-4.42,7.82-7.97,11.48-12.18,3.16-.5,3.08-3.66,4.46-5.58.42-.58.31-1.92-.08-2.63-1.87-3.37-3.92-6.88-7.09-8.98-3.98-2.64-7.99-5.35-12.49-7.19-2.48-1.01-4.8-2.44-7.17-3.67.35-.67.55-1.2.62-1.18,6.35,1.43,12.33,3.86,18.07,7.04ZM402.31,164.44c1.57-.13,2.27-.37,2.43-.17,2.58,3.17,3.51,7.38,6.42,10.35.09,3.84,2.41,7.06,3.04,10.73,1.17,6.86,2.21,13.75,3.1,20.13,1.89,1.42,3.34,2.64,4.91,3.68,3.26,2.17,6.46,4.45,9.89,6.3,3.51,1.9,7.24,3.42,10.93,4.99,3.46,1.47,6.88,3.18,10.25,2.76,1.24,1,2.12,1.71,2.52,2.03-.24,1.53-.54,2.59-.54,3.66-.04,6.83-.01,13.67-.03,20.5,0,1.15.27,2.49-.22,3.4-1.52,2.81-.59,5.54-.55,9.02,1.67-2.99,2.62-5.57,4.3-7.54,3.71-4.36,6.03-9.54,9.08-14.28,2.84-4.42,3.75-9.75,6.27-14.41,1.12-2.06,1.24-4.75,2.03-7.13.84-2.52.39-5.52,1.43-7.91,1.12-2.58-.08-5.49,1.67-7.81v-30.18c-5.48-5.15-12.27-8.4-15.64-15.34,4.72,3.68,9.44,7.36,14.82,11.55-.48-3.38-.89-5.85-1.16-8.35-.28-2.65-.43-5.32-.64-8.14.32,0,1.04-.17,1.17.03.58.9,1.24,1.87,1.41,2.9.85,5.18,1.56,10.39,2.4,16.09,1.17.55,2.79,1.15,4.23,2.03,1.49.91,3.12,1.86,4.11,3.21.92,1.26,3.45,1.07,3.25,3.86-4.12-2.46-7.9-4.71-11.95-7.13,0,.88-.26,1.8.04,2.45,1.45,3.11,1.04,6.4.91,9.6-.24,5.86.79,11.75-.84,17.62-.75,2.71-.52,5.71-.91,8.58-.87,6.43-2.29,12.61-4.64,18.63-.62,1.58-.84,3.34-1.59,4.84-1.8,3.6-3,7.53-5.8,10.62-.67.74-.86,1.96-1.14,3-1.11,4.05-2.83,7.87-3.34,12.18-.3,2.52-1.01,5.18-1.62,7.76-.62,2.63-1.49,5.27-1.09,8.08.11.76.1,1.81-.33,2.32-1.26,1.52-.35,3.19-.64,4.76-.31,1.68-.62,3.37-.91,5.06-.02.1.22.23.44.46,1.74-2.44,3.61-4.77,5.15-7.3,1.6-2.63,2.48-5.81,4.42-8.11,2.03-2.42,2.33-5.43,3.87-7.95,1.14-1.87,1.85-3.92,2.05-6.15.18-1.95,1.81-5.81,2.88-7.35.36,4.49-.38,8.67-1.91,12.73-.88,2.33-.74,4.95-2,7.17,1.13,1.96-2.99,2.53-1.24,4.66-.93.38-2.53.27-1.35,2.25,3.59.34,7.33-2.63,11.38.04.78-1.2,1.61-2.49,2.45-3.78,1.65-2.52,3.22-5.06,5.24-7.36,2.72-3.09,5.07-6.53,7.5-9.87,2.94-4.04,5.27-8.37,7.09-13.06,1.69-4.37,3.1-8.74,4.05-13.35.49-2.39.09-5.09,1.07-7.01,1.11-2.2.08-4.31.89-6.15.9-2.04.7-4.07.95-6.12.27-2.18-.74-4.07-1-6.1-.49-3.84-.69-7.72-1.07-11.58-.06-.6-.38-1.17-.57-1.76-.81-2.57-1.62-5.14-2.47-7.86,2.08-.12,2.58.92,3.1,2.2.46,1.14,1.27,2.15,1.96,3.19.79,1.18,1.7,2.28,2.39,3.51.49.87.7,1.9,1.03,2.86.24-10.95-2.22-21.36-5.7-31.49-3.36-9.78-7.35-19.27-12.6-28.3-5.41-9.31-11.83-17.75-19.66-26.31,5.12,1.07,7.05,4.99,10.27,7.27.13-.59.34-.96.24-1.19-1.97-4.19-3.98-8.35-5.98-12.52-.53-1.11-.98-2.27-1.59-3.34-1.49-2.56-2.97-5.13-4.6-7.59-3.37-5.1-6.84-10.13-11.87-13.07-4.79-.53-9.13-1.01-13.68-1.51-.28-.28-.75-.75-1.21-1.23-.02-.02.17-.22.47-.61,10.19.85,19.74-1.66,28.41-7.5-.3-.15-.59-.42-.85-.4-3.03.27-6.02-.19-9.14.83-4.07,1.32-8.27-1.18-12.51-.94-.22.01-.43-.55-.71-.66-2.88-1.1-5.93-1.87-8.61-3.33-2.72-1.48-5.06-3.52-8.11-4.61-1.66-.6-3-2.24-5.04-2.3-2.07-.06-3.85-1.34-6.1-1.08-3.12.35-6.3.09-8.86.09-1.22-1.1-2.06-1.86-2.89-2.6,1.5-1.19,3.12-2.51,4.77-3.78,1.71-1.32,2.58-3.34,4.45-4.66,2.06-1.45,4.95-9.33,5.71-12.06,1.36-4.86,1.88-9.88,3.06-14.74.5-2.04,1.11-3.91.6-6.36-1.28,2.33-2.8,3.93-4.76,5.26-2.98,2.02-5.89,4.07-9.08,5.82-2.67,1.46-5.54,2.03-8.28,2.96-1.53.52-3.34.86-5.04,1.11-1.79.26-3.67-.07-5.49.1-1.71.16-3.38.78-5.09.92-1.99.17-4.04.29-5.99-.03-2.24-.36-4,1.27-6.09,1.04-1.99-.22-3.75.87-5.59.92-2.32.07-4.25,1.07-6.35,1.68-2.22.65-4.54.75-6.59,2.29-.91.68-2.62,2.22-4.3.69,14.41-8.69,18.63-9.02,26.21-9.95-.99-.65-1.66-1.43-2.43-1.55-3.41-.51-6.64-1.63-9.94-2.58-2.83-.82-5.62-1.88-8.5-2.4-5.27-.94-10.23-3.46-15.74-3.07-1.83-2.01-4.5-.17-6.44-1.33-2.19-1.32-4.5-.55-6.73-.62-5.33-.15-10.67-.17-16,0-3.03.1-6.2.19-9.01,1.17-2.49.87-5.07,1.44-7.57,2.19-2.67.8-5.3,1.77-7.91,2.68-3.48,1.21-6.96,2.67-10.07,4.61-4.25,2.66-8.63,5.1-12.73,8.1-3.58,2.63-7.21,5.2-10.57,8.11-2.43,2.11-4.07,4.86-5.74,7.6-.48.78-1.19,2.22-2.71,1.2.27-.67.52-1.34.8-2,1.11-2.56.92-5.5,2.64-7.92,1.42-2.01,2.27-4.41,3.63-6.47,1.29-1.96,1.65-4.63,3.87-5.88,2.51-1.42,2.4-4.46,4.19-6.3.43-.44.47-1.25.95-2.67-2.15,1.14-3.44,1.96-4.84,2.52-1.29.52-2.83.51-4.01,1.18-6.38,3.63-12.79,7.13-18.83,11.43-6.29,4.48-11.38,9.73-15.64,15.98-1.8,2.64-3.31,5.33-3.01,8.78.22,2.51.18,5.09-.88,7.71-.55-1.31-1.09-2.63-1.96-4.72-.32,3.53.25,6.26-.99,8.9-.64,1.36-.68,3.58,0,4.88,1.36,2.56.56,5.06.91,7.42-1.75,1.23-3.57.03-5.37,1.06-1.66.94-3.63,1.81-5.51,2.28-2.08.52-2.99,2.26-4.56,3.26-2.17,1.38-4.03,3.48-5.55,5.61-4.5,6.32-6.67,13.6-8.02,21.15-.11.64.17,1.35.34,2.58,1.99-4.68,5.17-7.33,8.9-9.49,2.05-1.19,3.97-2.64,6.56-1.76-.41,2.33-2.66,1.29-3.77,2.22-1.37,1.15-2.75,2.31-4.01,3.57-1.07,1.07-1.99,2.3-3.05,3.55,0,2.21.17,4.55-.05,6.85-.22,2.33.82,4.4.98,6.59.17,2.27.96,4.24,1.82,6.27.84,1.98,1.46,4.06,2.25,6.07.74,1.88,1.58,3.73,2.26,5.31,3.63-3.63,4.42-9.14,9.61-12.43-.08,4.02-2.96,5.74-4.11,8.32-1.29,2.89-2.65,5.64-2.86,8.81,2.91,2.86,5.76,5.65,8.66,8.49.22-.2.57-.5.91-.8,1.1,2.84,3.29,4.28,6.49,4.78-1.87-1.69-.65-3.7-.97-5.51-.33-1.86-.86-3.71-.96-5.59-.3-5.82.91-11.47,1.85-17.19.82-4.93,3.63-8.86,5.43-13.28.37-.91,1.45-1.53,2.2-2.28.2.13.4.26.6.39-1.23,3.42-2.47,6.83-4.01,11.09.74,1.69-1,4.06-1.06,6.59-.17,6.66-.06,13.33-.05,20,0,.49-.18,1.2.07,1.45,1.88,1.84.7,4.1.88,6.14.2,2.23,1.73,4.24,1.03,6.58-.08.28-.33.51-.49.75-.35-.31-.69-.62-1.4-1.25-.75,2.09-1.35,4-2.12,5.84-1.25,2.98-2.16,6.24-4.01,8.81-4.76,6.62-9.45,13.18-12.72,20.76-3.66,8.51-7.07,17.09-9.79,25.94-.49,1.59-.55,3.32-.95,5.84-1.2-1.4-1.99-2.11-2.5-2.98-1.27-2.2-1.84-4.75-1.9-7.16-.06-2.47-1.27-4.44-1.44-7.32-1.75,3.83-3.94,6.94-4.49,10.31-.59,3.59-2.99,6.81-2.2,10.64-1.93,1.77-.08,4.44-1.13,5.99-1.44,2.12-.58,4.14-.84,6.18-.31,2.42.68,4.76.84,7.09.33,4.85,2.17,9.08,4.16,13.32.33.7.97,1.26,1.39,1.93.41.65.63,1.44,1.1,2.04.61.78,1.46,1.38,2.07,2.16.41.52,1.45.73,1.11,1.98-5.46-1.81-10.57-4.07-15.75-7.23.09,1.22-.09,2.13.25,2.76,3.03,5.56,5.85,11.22,8.13,17.14.66,1.72,1.94,3.2,2.64,4.9.74,1.78,1.46,3.51,2.98,4.77-.87,2.45,2.15,3.31,2.25,5.64.07,1.62,1.91,3.13,2.8,4.78,1.26,2.33,2.04,4.93,4.02,6.83.97,4.82,3.91,8.72,6,13.01,1.56,3.19,3.37,6.27,4.67,9.57,1.36,3.44,4.08,6.31,4.33,10.21,2.08,1.77,2.44,4.26,3.07,6.74.64,2.51,3.07,4.38,2.93,7.28,2.42,3.09,2.37,7.65,5.99,10.02-.24,2.08,2,1.62,2.85,2.71.94,1.21,2.43,2.02,3.76,2.87,3.65,2.35,7.32,4.54,11.48,6.09,3.33,1.24,6.76,2.19,10.04,3.51,6.4,2.58,13.11,3.86,19.79,5.32,1.98.44,4.03.71,5.93,1.39,4.19,1.5,8.6,1.9,12.93,2.51,2.84.4,5.59,1.77,8.57,1.1,1.82,2.01,4.54.53,6.76,1.84,1.94,1.14,4.66-.21,7.17.72,2.19.81,4.86.4,7.33.42,5,.04,10,.06,15-.01,1.73-.02,3.63.59,5.09-.98,6.38-.86,12.6-2.55,18.81-4.11,3.43-.87,7.11-.82,10.33-2.81,1.79-1.1,4.03-1.83,6.13-1.98,3.56-.27,6.61-1.77,9.74-3.12,3.25-1.41,6.7-2.2,9.91-3.86,4.53-2.33,9.19-4.43,13.54-7.12,2.66-1.64,5.38-3.2,7.91-5.03,2.64-1.92,5.13-4.05,7.18-6.66,2.01-2.54,4.55-4.72,6.27-7.42,4.42-6.96,8.31-14.16,9.57-22.54.55-3.65,1.92-7.18,2.92-10.79-.32-.34-.65-.7-1.17-1.26.77-.6,1.55-1.2,1.95-1.51.52-3.48.69-6.55,1.5-9.45.8-2.9,1.32-5.81,1.89-8.74.56-2.89,1-5.84,1.76-8.72.73-2.76.11-5.99,1.25-8.49,1.32-2.9.61-5.9,1.59-8.83.91-2.71,1.9-5.87,1.24-9.01,2.37-2.5.36-5.84,1.81-8.77,1.23-2.49.8-5.8,1.1-8.68-3.29,3.67-6.44,7.18-9.91,11.05,0-1.63.1-2.93-.03-4.21-.15-1.52.95-2.82.92-4.09-.1-5.41.67-10.73,1.02-16.09.36-5.48.09-10.99.07-16.49,0-1.1-.11-2.19-.14-2.82-4.81-1.19-9.17-2.27-13.69-3.39,2.96,6,6.85,11.33,9.03,17.85-.89,0-1.51.19-1.76-.03-1.24-1.11-2.67-2.16-3.49-3.55-1.04-1.76-3.02-.84-4.23-2.04-1.59-1.57-3.46-2.87-5.2-4.28-2.9.88-3.69-2.21-5.69-3.14-2.91-1.35-5.39-3.63-8.2-5.62.61-.82.98-1.3,1.42-1.89-1.18-.46-2.31-.96-3.48-1.32-.41-.13-.92.09-1.45.16v4.36c.69,1.12,2.58,1.47,1.5,3.53-.76-.74-1.43-1.41-2.16-2.12-1.76,2.69-.97,6.11-3.84,8.77-1.15-4.42,1.98-7.67,1.36-11.18-1.43-1.86-3.43-3.03-4.37-5.3-.4-.96-1.39-2.07-2.96-2.33-1.3-.21-2.77-.98-3.61-1.97-1.08-1.28-2.27-.22-3.44-.68-4.05-1.59-8.46-2.03-12.68-3.16-2.02-.54-4.33-.27-6.47-.04-2.16.23-4.28.87-6.38,1.32-.46,6.17,1.73,12.09.98,18.18-.05.42.17.92.37,1.33,1.42,2.86-1.41,5.49-.44,8.35.16.48-.21,1.22-.49,1.76-.2.39-.66.65-1.16,1.12-1.09-5.24.16-10.43-1.1-15.63-1.21-4.99-2.25-9.9-4.72-14.42-7.3,6.42-8.74,16.18-13.75,24-1.33-.11-2.55-.2-4.1-.32,1.64-3.74,1.1-7.78,3.99-10.93.28,1.24.5,2.18.76,3.31,1.64-3.55,3.64-6.64,4.49-10.01,1.07-4.28,5.54-5.46,7.16-9.15-.33-.64-.69-1.32-1.03-2.01-1.78-3.59-3.5-7.22-5.36-10.78-1.87-3.56-4.89-6.51-5.64-10.67-4.68-6.8-8.32-14.21-12.36-21.38-.32-.58-.43-1.28-.63-1.92,12.18,15.76,23.06,32.18,30.99,51.48,0-5.49.13-9.97-.04-14.44-.17-4.53-.58-9.06-.99-13.58-.14-1.55-.65-3.06-.97-4.59-.35-1.69-.45-3.47-1.05-5.07-1.43-3.82-1.11-8.07-2.91-11.8-.14-.29.41-.91.99-2.08,1.62,2.95,2.49,5.33,3.41,7.74.88,2.29,2.36,4.35,3.45,6.57,1.09,2.23,1.72,4.73,3.86,6.35-.04-1.79-.46-3.43-.74-5.1-.39-2.35-.24-4.9-1.1-7.05-2.2-5.43-3.72-11.14-6.27-16.4-2.72-5.6-5.68-11.05-9.48-16.13-3.07-4.1-6.38-7.99-9.62-11.93-2.78-3.39-6.27-6.16-9.69-8.99-3.57-2.96-7.21-5.75-11.12-8.23-1.99-1.27-3.62-3.12-6.27-3.06-.17,0-.36-1-.73-2.07,1.44.28,2.44.24,3.19.66,3.8,2.11,7.58,4.27,11.29,6.53,5.77,3.53,10.73,8.13,15.77,12.57,2.16,1.91,3.54,4.73,5.77,6.52,3.39,2.74,4.69,6.92,7.66,9.91,1.04,1.04,1.47,2.69,2.17,4.07.99,1.95,1.96,3.87,3.33,5.65,1.29,1.68.86,4.4,3.03,5.72.6,4.51,3.19,8.39,4.08,12.82.3,1.49,1.07,2.88,1.68,4.47-.07.08-.38.43-.72.81.68.33,1.36.66,2.2,1.07-.31,1.07-.6,2.07-.9,3.15,1.51,2.86,3.07,5.88,4.71,8.87,1.74,3.18,3.42,6.52,6.16,8.91,2.64,2.3,3.82,6.01,7.51,7.46,2.46,0,5.15-.26,7.77.08,2.42.31,4.75,1.25,7.25,1.94,0-3.68.55-7.36-.16-10.79-.65-3.16-.01-6.74-2.31-9.51.28-3.63-1.84-6.56-2.81-9.83-.98-3.3-2.26-6.44-5.33-9.64ZM210.39,82.86c3.51-.57,6.01-2.2,8.71-2.91v-3.06c-2.7-3.66-5.98-5.88-9.61-7.74-3.68-1.88-7.32-3.88-10.04-7.2-1.32-1.61-2.55-3.43-3.97-4.79-3.8-3.64-3.49-9.01-6.25-12.98.17-3.58-1.55-6.95-1.04-10.59.24-1.75.04-3.56.04-6.18-6.44,13.3-7.45,15.99-7,26.96.01.33.02.67,0,1-.34,4.72,1.83,8.89,3.1,13.23.85,2.92,2.63,5.56,3.86,8.39.26.59-.1,1.45-.23,2.75-1.04-2.34-2.51-3.48-3.98-4.53-4.88-3.5-10.26-3.19-15.64-1.58-4.61,1.38-9.23,2.85-13.22,6.68,5.17,0,10.04-.55,14.72.16,4.6.69,8.51,3.61,12.43,6.28-.62.47-1.2,1.05-1.89,1.42-3.54,1.89-7.46,2.89-10.95,4.97-2.91,1.73-6.07,3.02-9.13,4.49-3.2,1.53-6.36,3.15-9.62,4.53-3.14,1.33-6.91.44-9.87,2.81-.67.54-2.18.11-3.28-.03-.58-.07-1.19-.8-1.67-.7-2.53.55-4.76-.72-7.07-1.19-1.71-.35-3.68-.53-5.2-1.92-.99-.9-2.51-1.2-3.65-1.98-1.21-.83-2.24-1.92-3.35-2.89-.21,2.08.46,3.71.6,5.38.35,4.27,1.76,8.23,3.01,12.26,1.48,4.74,2.21,9.77,5.84,13.58-.48,2.41,1.89,3.51,2.56,5.44.65,1.87,3.35,2.17,4.09,4.21,7.47,4.65,13.87,6.88,23.71,3.37,1.31-.47,2.89-.23,3.83-1.72.26-.41,1.25-.36,2.6-.7-7.55,7.55-14.46,14.54-21.47,21.43-2.67,2.62-5.28,5.26-8.32,7.55-5.13,3.86-10.67,5.95-17,6.1-2.07.05-4.05-.27-6.12-.86-4.03-1.14-7.69-2.62-10.7-5.61-4.33-4.32-6.99-9.62-8.96-15.29-1.03-2.97-1.73-6.07-2.57-9.1-.46,3.65-.62,7.28-.42,10.89.21,3.7-1.03,7.54.95,11.09-.3,5.5,1.63,10.57,2.99,15.76,1.36,5.15,4.7,9.37,6.62,14.26,4.4,3.98,7.99,8.68,13.89,11.11,8.06,3.31,10.07,3.86,18.53,2.9,3.9-.44,7-1.68,9.77-4.33.66-.63,1.91-.63,3.59-1.13-6.3,7.19-12.18,16.76-13.25,21.58,2.55-1.78,4.78-3.39,7.07-4.91.42-.28,1.08-.2,1.66-.29.06.69.25,1.15.1,1.31-3.4,3.81-4.96,8.61-6.86,13.17-1.48,3.55-2.83,7.43-2.96,11.21-.23,6.51-1.02,13.12.83,19.58,1.15,4,1.95,8.13,4.88,11.65.06-.72.16-1.2.12-1.67-.45-5.58,1.36-10.56,4-15.35.64-1.17,1.11-2.43,3.01-1.62,0,1.8.09,3.62-.02,5.42-.19,2.94.78,5.6,1.44,8.38.56,2.37,3.16,3.76,2.64,6.44,2.96,7.45,8.68,14.9,15.59,19.32,1.41.9,2.38,2.76,3.74,2.85,2.53.18,3.42,2.42,5.23,3.18,2.3.95,3.45,2.95,5.15,4.43,1.36,1.18,2.46,2.66,3.09,3.35,3.97-.39,7.03-.7,10.19-1.01-.46-.62-.83-.97-1.03-1.4-3.36-7.44-7.61-14.48-10.03-22.34-.59-1.91-1.32-3.79-2.18-5.59-.88-1.85-1.18-3.89-1.93-5.7-.76-1.85-2.5-3.32-3.9-4.87-.47-.52-1.46-.63-1.83-1.18-4.56-6.87-9.6-13.47-12.4-21.35-1.29-3.63-3.14-7.02-3.86-10.92-.66-3.56-2.18-6.95-1.89-10.69-1.84-1.97-.66-4.39-1-6.58s-.85-4.38-.96-6.59c-.17-3.55.16-7.05.83-10.61.72-3.77-.48-7.81,1.12-11.56-.51-5.86,2.86-11.02,3-16.75,1.73-.89.11-3.98,2.85-4.24-.28,3.34.08,6.92-1.05,9.93-.94,2.51-.43,4.8-.79,7.16-.36,2.36-.85,4.71-.97,7.09-.17,3.32-.04,6.66-.04,10s-.19,6.68.05,9.99c.24,3.36-.47,6.67.74,10.16,1,2.88.21,6.35,1.16,9.53,1.07,3.58,1.83,7.26,2.6,10.92.77,3.7,2.7,6.89,4.29,10.22,1.14,2.37,2.24,4.89,3.93,6.84,3.05,3.52,6.35,6.87,9.9,9.88,2,1.7,4.17,3.66,7.07,4.03.75-2.13-1.52-2.43-1.6-3.5-.25-3.18-2-6.09-2.01-9.15-.01-5.69-.96-11.45.85-17.09,1.46-4.56,2.19-9.33,4.71-13.56,1.89-3.17,3.9-6.45,4.84-9.96.96-3.6,3.3-6.98,2.48-10.99,1.32-.47.19-3.24,2.85-2.66-.28,2.59-.77,5.21-.79,7.84-.02,2.7-.16,5.36.76,8.14.84,2.55.18,5.6.18,8.42l.64-.61c.24.74.48,1.48.73,2.23.63-1.43.32-2.55.69-3.35,2.42-5.26,2.8-11.12,4.94-16.45.74-1.86,1.28-3.8,2.03-5.66.81-2,1.78-3.93,2.68-5.89.83-1.82,1.2-4.18,2.58-5.35,1.91-1.61,2.07-3.93,3.25-5.78,2.27-3.55,5.29-6.49,7.1-10.51,2.06-4.59,3.36-9.02,3.38-13.9-3.63-1.3-6.59-3.01-9-5.71-2.05-2.3-4.33-4.39-6.92-6.97-1.82,4.62-.67,9.35-2.6,13.4-.47-.47-.94-.94-1.6-1.6.36-4.18.7-8.52,1.15-12.86.05-.49.78-.91,1.24-1.42-3.25-4.74-5.48-9.72-7.16-14.81-1.72-5.23-2.4-10.8-3.61-16.56-.99,2.39-1.81,4.38-3.03,7.31-.64-2.98-1.95-5.32-1.31-6.82,1.51-3.53-.2-7.44,1.82-10.75-.27-5.81,4.25-9.95,5.3-15.3,2.59-2.93,5.07-5.96,7.82-8.73,1.56-1.58,3.57-2.71,5.04-3.8ZM210.23,650.79c0-.64-.12-1.18.02-1.64,1.35-4.4.96-9.29.1-13.7-.85-4.37-3.38-7.96-4.58-12.14-1.27-4.42-2.96-8.72-2.53-13.44.31-3.36.65-6.73,1-10.09.32-3.03.08-6.3,1.2-9,.76-1.83.23-3.56.88-5.14,2.32-5.61,3.53-11.54,5.33-17.3,1.84-5.88,3.89-11.69,6.26-17.4,1.11-2.67,1.71-5.56,2.45-8.04-11.03-5.27-20.61-11.85-29.01-19.91-.57.35-.99.46-1.08.69-2.13,5.62-4.83,11-6.75,16.71-1.53,4.54-3.06,9.15-4.09,13.77-1.26,5.67-2.73,11.34-3.37,17.19-.3,2.69-.09,5.64-1.02,8.03-.91,2.32-.51,4.46-.81,6.66-.32,2.36-.76,4.72-.98,7.09-.43,4.85.85,9.83-1.02,14.58.72,5.39-2.66,9.62-4.49,14.14-1.47,3.63-3.92,6.97-5.63,10.66-1.7,3.67-2.89,7.28-2.91,11.31,0,1.24-.14,2.41-.63,3.72-1.16,3.11.35,6.15,1.61,9.06.09.21.45.31,1.05.7,0-2.2.08-4.16-.03-6.11-.08-1.44.47-2.3,1.89-3.03.17,6.2.7,12.04,5.87,16.14.88-.17,1.61-.31,2.38-.46-.8-2.4-1.92-4.36-1.84-7.7,3.25,3.56,5.8,6.4,8.4,9.2,3.63,3.93,6.01,5.66,9.44,6.8-.53-4.01.17-7.72,1.91-11.17,1.55-3.05,2.45-6.15,1.77-9.64-1.64-.26-3.22-.52-5.02-.81,1.07-2.42,2.99-3.21,5.57-3.42,3.82,2.97,4.37,7.39,4.57,11.81.06,1.38-.9,2.81-1.41,4.25-.44-.44-.78-.81-1.15-1.15-.3-.28-.63-.52-.99-.81-1.47,3.61-3.17,7.02-2.11,10.67,3.27-1.4,6.38-2.74,9.76-4.19,1.26-6.7,4.59-12.5,9.99-16.93ZM447.63,613.58c4.6-6.89,9.01-13.49,13.42-20.09-.64-.63-1.23-1.22-1.82-1.79v-4.7c1.74-3.2,2.82-6.75,7.05-6.94-1.62-4.91-1.17-6.82,2.51-9.87,1.05-.87,2.44-1.33,3.65-2,1.95-1.09,3.89-2.2,6.41-3.62-6.13-2.05-5.86-6.49-5.56-10.94.35-.35.73-.69,1.06-1.06,2.14-2.48,4.73-3.75,8.1-3.4,1.79.18,3.62.03,5.65.03,1.53-2.59,3.32-5.07,4.92-7.55,4.7-7.26,9.94-14.13,14.64-21.37,3.68-5.68,7.73-11.15,11.35-16.83,3.45-5.4,7.32-10.52,10.57-16.05,1.67-2.84,3.78-5.43,5.63-8.17,5.19-7.67,10.1-15.55,15.6-22.99,4.41-5.96,8.43-12.14,12.76-18.46-4.8-3.5-9.43-6.86-14.52-10.57.04,0-.62,0-1.25,0-2.61,3.91-5.21,7.82-7.82,11.72-3.41,5.08-6.84,10.15-10.23,15.25-1.91,2.87-3.72,5.8-5.67,8.64-3.92,5.71-8,11.32-11.84,17.08-7.65,11.47-15.15,23.04-22.77,34.52-4.17,6.28-8.22,12.67-12.8,18.65-2.61,3.4-4.05,7.51-7.22,10.59-1.47,1.44-2.16,4.19-.87,6.25,1.03,1.65,1.11,3.78.47,4.63-1.34,1.78-.39,3.53-.98,5.3-.83.83-1.64,2-2.75,2.66-1.2.71-.47,3.07-2.79,2.78-1.14-.14-2.45.44-3.55.97-.85.41-1.62,1.15-2.19,1.92-2.84,3.81-5.67,7.66-8.36,11.55-4.01,5.78-7.74,11.78-11.76,17.58-.97,1.41-1.68,3-1.5,4.89.1,1.03.52,1.74.99,2.61,2.53,4.66,6.74,6.88,11.46,8.79ZM393.37,625.1c-2.21,1.64-4.12,3.08-6.05,4.49-1.87,1.38-3.25,3.52-5.82,3.83-3.08,3.38-7.6,4.18-11.39,6.3-1.17.65-2.53,1.13-3.83,1.6-4.24,1.52-8.55,2.7-12.87,3.88-2.86.78-5.72,1.53-8.63,2.17-2.39.53-5.01.07-7.01,1.04-1.84.89-3.48.48-5.19.78-1.7.3-3.38.91-5.08.95-5.66.12-11.33.19-16.98,0-5.69-.19-11.48.97-17.07-.96-3.13.62-6.04-.77-9.08-1.01-3.14-.25-6.14-1.43-9.18-1.84-3.95-.53-7.55-1.95-11.29-3-5.5-1.55-10.89-3.27-16.06-5.88-3.99-2.01-8.65-2.71-11.94-6.12-5.19-1.72-8.97-5.67-13.47-8.49-1.7-1.06-3.14-.89-4.1.79-.69,1.2-1.28,2.47-1.75,3.77-.26.72-.54,1.98-.2,2.27,1.29,1.09.56,2.49.92,3.67.44,1.46.84,3.28,1.91,4.14,3.05,2.45,6.28,4.76,9.72,6.64,4.04,2.21,8.4,3.83,12.56,5.83,3.78,1.82,7.8,2.88,11.74,4.24,3.79,1.3,7.55,2.73,11.4,3.82,5.85,1.66,11.72,3.27,17.75,4.22,2.18.34,4.38.73,6.5,1.22,3.4.78,6.72,1.81,10.25,1.74.83-.02,1.95-.35,2.45.06,2.08,1.7,4.44.6,6.63.94,2.19.34,4.38.92,6.58.95,8.32.11,16.65.05,24.98.05,3.56,0,6.95-1.7,10.58-1.02.24.05.53-.31.83-.38,2.44-.55,4.88-1.09,7.33-1.59,3.06-.63,6.16-1.04,9.17-1.98,5.6-1.75,11.29-3.05,16.53-5.96,6.32-3.5,10.06-6.96,12.72-13.25,2.66-6.3,1.45-14.35-3.53-17.91ZM245.23,426.45c-2.83.72-4.92,2.23-7.53,2.95-4.25,1.17-8.31,3.19-11.1,6.93-1.8,2.41-3.38,5.01-5.35,7.26-2.11,2.41-3.24,5.47-5.17,7.82-2.18,2.65-2.26,6.29-4.85,8.55-.22,3.67-2.33,6.71-3.48,10.07-1.18,3.44-1.6,6.99-2.52,10.45-.32,1.2-1.02,2.42-.93,3.58.21,2.58-1.05,4.68-2.1,6.97v-17.22c-3.43,3.1-6.16,6.05-9.39,8.52-2.47,1.89-4.52,4.84-3.53,8.42.95,3.43,1.88,6.95,4.58,9.6,1.17,1.15,2.25,2.4,3.36,3.6,3.12,3.37,5.85,7.28,9.48,9.98,4.23,3.14,8.5,6.31,13.28,8.81,4.23,2.21,8.49,4.36,12.55,6.57,2.65-3.54,2.61-7.87,4.69-11.35-.39-4.23,3-7.84,2-12.17,2.22-1.44-.13-4.24,1.7-5.79-.97-1.9-.06-4.24-.84-5.9-1.42-3.03-1.33-6.36-2.7-9.39-1.33-2.93-1.51-6.36-2.64-9.4-1.69-4.52-2.26-9.25-3.85-14.95,1.37,1.1,2.17,1.41,2.28,1.88.63,2.73,1.7,5.34,2.67,7.91,1.96,5.21,3.61,10.5,5.39,15.76.15.44.22,1,.53,1.26.37.3.53,1.36,1.38.67.44-3.71-.35-7.43.96-11.13.73-2.08,0-4.63.17-6.95.17-2.37.9-4.72.92-7.09.1-11.99.05-23.99.05-36.19ZM451.2,504.94c-1.11-2.72-1.87-5.42-4.08-7.39-2.05-1.82-3.75-4.04-6.3-5.3-.94-.46-2.07-1.01-2.54-1.85-1.89-3.32-5.63-5.29-6.59-9.24-3.99-4.67-6.41-10.31-9.5-15.54-3.81-6.45-7.27-13.06-11.88-19.07-6.25-8.16-5.98-8.37-15.66-14.51-.49,2.15-1.26,4.23-1.38,6.35-.51,8.5.59,17.03-.94,25.56-.94,5.24.25,10.67-.95,16.07-.89,4.03-.32,8.33-1.03,12.55-.91,5.42.53,11.05-1.04,16.56-.59,2.07.44,4.39.73,6.57.52,3.97,1.97,7.55,3.42,11.11,1.74,4.27,4.05,8.3,6.13,12.46,1.03-2.4,1.45-5.22,3.06-6.82,4.22-4.17,6.31-10.47,12.47-12.7.14-.05.3-.21.35-.35.55-1.54,2-2.16,3.14-3.1,1.22-1.01,2.53-1.91,3.81-2.83,6.13-4.41,15.03-8.75,21.23-10.2,2.66-.62,5.13.21,7.54,1.65ZM349.02,433.29c-1.02-8.32,3.41-14.44,7.57-21.5-5.94,1.24-11.12,3.09-16.33,3.19-5.66.1-11.18,2.31-16.92.85-5.18-1.32-10.73-.39-15.87-2.44-.81,2.1.37,4.4-1.12,6.57-1.31,1.9-1.91,4.06-4.29,5.33-3.32,1.77-3.15,2.15-5.71,1.24,2.12-1.82,5.17-2.71,6.09-6.13-1.11.33-1.93.49-2.7.81-3.48,1.44-7.19,2.57-9.63,5.68-1.85,2.35-2.52,4.73-.97,7.86,2.23,4.51,4.99,8.18,9.12,11.23,2.98,2.21,6.09,4.02,9.46,5.01,3.42,1,6.85,2.5,10.6,2.22,4.86-.37,9.69.15,14.62-.82,5.59-1.09,10.89-2.8,15.81-5.37,5.12-2.67,8.96-6.76,8.55-13.3-.02-.33.6-.7.83-.95-2.18-1.46-4.36-2.93-6.48-4.34-.85,1.58-1.73,3.22-2.62,4.86ZM378.61,526.41c1.26,3.82,2.12,7.84,3.9,11.4,1.77,3.52,3.05,6.94,2.61,11.54-.38.25-1.22.8-1.66,1.1v6.06c2.41-3.48,3.15-6.94,2.79-10.74-.45-4.68.6-9.41-.9-14.12-.72-2.27-.25-4.97-.09-7.46.17-2.54.73-5.05.94-7.59.48-5.68-.65-11.4.9-17.11.72-2.64,0-5.64.16-8.46.16-2.7.68-5.39.95-8.09.36-3.69-.44-7.39.87-11.13.78-2.23.01-4.96.18-7.45.17-2.54.71-5.05.95-7.59.43-4.69-.19-9.35.81-14.12.96-4.59.21-9.53.21-14.42-6.5-3.57-13.76-4.44-20.14-7.6-1.77-.88-3.91-1.01-5.9-1.43-.24-.05-.56.23-.95.4.07.42,0,1.04.26,1.27.44.38,1.51.4,1.61.76.8,2.85,1.83,5.71,2.05,8.63.57,7.51-.48,15.05.96,22.59.94,4.91-.1,10.01.94,15.1.93,4.54.12,9.36,1.08,14.07.77,3.76-.4,7.73.99,11.6.64,1.77-.55,4.31.28,5.87.97,1.82.98,3.52.73,5.16-.32,2.11,1.07,3.66,1.15,5.6.08,1.87.69,3.71.93,5.59.4,3.19.62,6.4,1.08,9.57.09.65.92,1.2,1.39,1.77.46-.38.79-.65.94-.77ZM248.76,419.39c.17,1.53.43,2.9.45,4.26.06,3.99.02,7.99.02,11.99s.13,7.66-.04,11.49c-.17,3.86-.64,7.72-.96,11.57-.44,5.35.77,10.74-.91,16.1-.9,2.86.23,5.97-.9,9.12-.98,2.72-.65,6-1,9.03-.53,4.6-2.46,8.94-2.2,13.63-1.95,3.14-1.72,6.9-2.95,10.26-1.22,3.34-1.82,6.9-3.11,10.2-1.46,3.72-2.28,7.75-4.91,10.96-.12.15.11.59.29,1.37.79-.79,1.53-1.31,1.99-2.03,3.93-6.02,8.14-11.89,11.61-18.17,4.02-7.27,7.36-14.92,11-22.4-.38-2.41,1.5-4.04,2.16-6.1,2.66-8.23,5.67-16.37,7.63-24.79,1.39-5.97,3.13-11.92,3.29-18.13.02-.67-.27-1.71.05-1.94,2.14-1.55.37-3.98,1.5-5.94.94-1.64.37-4.15.45-6.28.03-.83-.26-1.78.05-2.48,2.01-4.59.53-9.26.88-13.93-3.21,0-6.25-.65-8.81.18-2.62.85-5.1.54-7.63.84-2.68.32-5.35.79-7.95,1.18ZM443.75,580.7c.61-3.68,1.23-6.34,1.43-9.02.22-2.98.05-5.99.05-8.98,0-.67-.17-1.39.04-1.98.31-.89.87-1.69,1.33-2.53.25.09.49.18.74.26v16.35c2.54-3.53,4.65-6.48,6.94-9.66-.56-.96-1.08-2.34-2.01-3.33-1.42-1.5-1.27-3.49-1.95-5.2-.69-1.72-1-3.69-1.01-5.55,0-2.07-.78-3.66-1.9-5.24-.24-.34-.17-.94-.16-1.42.04-3.83-.66-7.79,1.97-11.17.16-.21.02-.65.02-.99-1.47-2.39-2.93-4.78-4.31-7.04-.76,0-1.34-.16-1.75.03-3.36,1.56-7.12,2.44-10.21,4.2-3.21,1.83-6.82,3.18-9.66,5.74-1.5,1.35-3.24,2.55-5.05,3.45-3.35,1.67-5.49,4.61-7.94,7.19-.84.88-1.05,2.65-1.03,4,.1,5.89,1.96,11.31,4.56,16.57,2.22,4.49,5.87,7.67,9.21,11.17,2.68,2.8,5.97,4.68,9.39,6.29,2.04.96,4.32,1.38,6.72,2.12,1.64-1.88,3.44-3.94,4.58-5.24ZM481.44,283.19c-1.18,0-2.69.13-4.17-.03-3.86-.4-7.3.77-10.22,3.07-4.04,3.18-7.33,6.88-8.93,12.1-1.82,5.94-3.31,11.97-4.76,17.98-1.83,7.59-4.06,15.1-5.31,22.85-.33,2.03-.81,3.91-.76,6.51,1.62-.62,2.73-1.32,3.89-1.43,3.94-.38,7.51-2.04,11.27-2.92,3.8-.89,7.48-2.1,11.23-3.09,1.75-.46,3.08-1.41,4.51-2.44,3.73-2.67,5.41-6.82,6.84-10.68,1.65-4.45,3.79-8.88,4.19-13.76,1.74-2.08.26-4.83,1.36-6.92,1.11-2.1.32-4.18.64-6.24-2.07-1.67-.59-4.21-1.63-6.33-1.83-3.74-4.19-6.7-8.16-8.67ZM191.19,313.41c-1.23.32-2.11.72-2.99.74-2.43.05-4.51,1.05-6.67,1.99-2.89,1.26-4.86,3.51-5.2,6.35-.98,8.4.66,16.5,3.98,24.24,2.11,4.92,5.66,8.96,8.51,13.43,1.18,1.85,2.97,3.72,5.28,3.92,2.72.23,5.24,1.22,8.06,1.24,4.41.03,8.52-1.93,13.19-1-1.36-4.97-2.72-9.33-4.9-13.43-2.24-4.22-4.34-8.53-6.4-12.59-3.44-.36-6.48-.31-8.81,2.36v3.85c.96,2.05,4.11,2.68,3.73,6.08-3.11-1.56-4.66-4.15-6.68-5.8v-5.83c1.02-1.48,1.81-2.63,2.76-4.01h6.86c-3.04-2.5-5.32-4.9-8.08-6.49-2.83-1.63-6.34-1.28-9.91-1.54,3.39-3.24,6.66-3.57,10.25-1.31,1.12.7,2.4,1.14,4.02,1.89-1.98-5.29-4.6-9.58-7.02-14.1ZM290.02,441.9c-1.32-2.17-3.02-4.05-3.61-6.22-.43-1.61-1.21-3.42-1.05-5,.38-3.73,5.87-10.64,9.39-11.35,3.24-.65,6.02-2.79,9.31-2.22v-3.14c-2.41.26-4.66.36-6.86.77-4.79.89-8.22,3.93-11.45,7.36-2.17,2.31-3.25,5.16-3.42,8.05-.27,4.44-.98,9.1,1.89,13.15-.68,2.04,1.45,2.72,2.12,4.11,2.56,5.34,8.35,9.79,13.36,12.79,6.62,3.97,13.96,5.32,21.49,5.98,1.32.12,2.68.15,3.99-.02,1.38-.17,2.72-.87,4.09-.91,2.26-.07,4.41-.64,6.59-.9,2.32-.28,4.11-1.48,6.17-2.06,6.81-1.94,12.27-6.09,17.73-10.23,2.58-1.95,3.61-4.96,4.55-8.08,1.06-3.55.92-7.06.87-10.6-.07-5.09-1.04-9.88-5.55-13.15-.62,0-1.28-.02-1.94.02-.12,0-.24.22-.35.34,3.1,5.08,4.42,10.44,2.9,16.36-.95,3.71-2.69,7.03-5.2,9.8-1.42,1.56-3.56,2.51-5.47,3.58-1.88,1.05-3.78,2.23-5.83,2.79-5.95,1.61-11.81,3.81-18.21,3.16-2.97-.3-6-.19-8.98-.01-2.95.17-5.62-.87-8.35-1.6-5.91-1.58-10.8-4.95-15.2-9.13-1.13-1.08-2.4-2.02-3.59-3.01.06-.06.3-.3.59-.59ZM406.23,558.74c0-2.2.02-3.81,0-5.43-.08-6.81,2.43-12.25,8.32-15.98,1.47-.93,2.75-2.17,4.2-3.15,4.03-2.7,8.11-5.34,12.17-8.01,3.18.17,5.22-2.59,8.24-3.1,2.86-.48,5.52-2.17,8.37-2.58,3.3-.47,6.75-1.1,10.07.47.71.34,1.72.05,2.98.05-1.33-1.33-2.69-2.11-3.14-3.25-1.16-2.95-3.67-4.63-5.8-6.55-2.77-2.49-6.26-4.03-10.09-2.78-3.5,1.14-6.76,3.07-10.28,4.1-3.84,1.12-6.54,4.11-10.23,5.51-2.57.98-5.11,2.81-6.88,4.92-1.86,2.21-4.16,3.91-5.88,6.38-3.11,4.47-5.69,8.79-5.07,14.45.14,1.32.14,2.68,0,3.99-.4,3.77.35,7.23,3.02,10.94ZM232.74,530.63c-10.5-2.08-19.19-6.2-27.1-12.41-10.42-8.18-12.7-12.49-17.88-23.07-1.53,1.53-3.09,2.98-4.51,4.54-2.72,2.99-2.97,6.95-.05,9.77,1.67,1.6,1.78,4.73,4.79,4.98,1.39,3.53,4.56,5.55,7.12,7.99,3.6,3.43,7.3,6.96,11.54,9.46,6.07,3.59,12.14,7.41,19.47,9.4,2.08-3.35,4.22-6.8,6.62-10.67ZM566.41,401.81c6.57,2.98,12.3,7.18,17.28,12.32,4.57-11.15,9.15-22.33,13.84-33.77-2.26-.55-4.05-.99-5.39-1.32-2.32,1.65-3.55,3.54-5.71,4.63-1.97.99-3.43,2.98-5.13,4.52-1.69,1.52-3.4,3.03-5.11,4.54-1.65,1.45-3.34,2.86-4.95,4.36-1.59,1.48-3.11,3.04-4.83,4.73ZM215.07,665.47c4.31-.48,8.35-.08,11.55-1.52,2.85-1.29,5.93-2.94,8.31-5.14,1.62-1.5,2.38-3.92,3.74-6.32-6.38-2.69-12.47-5.39-17.93-9.23-2.5,5.24-2.73,5.26-2.42,10.33.17,2.69-1.12,4.98-1.19,7.57-.03,1.23-1.12,2.44-2.06,4.31ZM380.11,198.54c-2.25-4.04-4.27-7.65-6.28-11.26-.48,6.47-.82,12.7-.38,19.47,6.85-1.37,13.3-2.65,19.87-3.96-4.83-4.83-9.68-9.39-13.21-15.34v11.1ZM569.62,429.95c-1.54-1.3-2.82-2.86-4.47-3.69-2.22-1.11-4.02-2.59-5.69-4.34-1.55-1.62-3.16-3.17-4.84-4.85-1.86,2.8-3.54,5.32-5.17,7.77,6.81,4.58,13.43,9.04,20.12,13.54,1.57-2.03,3.04-3.92,4.53-5.83-.69-.69-1.51-1.51-2.33-2.33-1.16.51-1.56,2.74-3.55,1.61.43-.58.79-1.06,1.4-1.88ZM241.59,653.38c-2.28,4.77-4.78,9.52-10.41,11.33-3.72,1.19-7.32,2.94-11.45,2.51-2.1-.21-4.24-.04-6.12-.04-.56,1.84-.98,3.25-1.45,4.79,7.01,1.12,13.04-1.7,18.92-3.96,6.39-2.46,11.83-6.83,16.01-12.51-1.81-.7-3.65-1.41-5.5-2.12ZM565.02,404.49c-1.58,1.45-3.14,2.87-4.86,4.45,2.41.92,4.96,1.43,6.95,2.76,4.39,2.93,8.51,6.28,12.65,9.39,1.45-1.07,1.96-2.25,1.24-3.58-.67-1.24-1.46-2.49-2.46-3.46-4.12-3.95-8.83-7.1-13.52-9.56ZM416.39,214.83c1.1.61,1.68,1.95,3.28,2.53,1.35.49,2.36,2.1,4.18,1.93-.03,1.87,1.86,1.83,2.79,2.73,1.01.97,2.34,1.6,3.42,2.52,1.14.97,2.07,2.17,3.21,3.13,1.2,1.03,2.56,1.86,3.79,2.85,1,.8,1.93,1.7,2.89,2.56-2.1-6.46-6.56-10.95-11.49-14.8-3.59-2.8-7.88-4.7-12.07-7.12v3.67ZM463.24,603.75c-.69-.73-1.36-1.43-2.2-2.31v-4.9c-3.11,6.96-8.26,11.83-11.02,18.45h4.95c2.85-3.88,5.56-7.55,8.27-11.24ZM388.94,670.33c-1.24-4.52-.96-8.77.38-13.62-4.42,2.17-8.23,4.05-12.42,6.11,4.32,2.18,7.32,6.02,12.05,7.51ZM401.39,207.31c4.47,3.18,7.71,6.4,12.68,7.02v-3.82c-2.98-3.7-7.27-3.43-12.68-3.2ZM462.16,528.41c.26-3.16-1.91-3.46-3.14-3.79-3.21-.85-6.55-.68-10.24,0,1.23,1.79,2.17,3.17,3.15,4.59,1.66-.34,3.35-.64,5.01-1.05,1.67-.41,3.27-2,5.22.24ZM229.64,542.62c-2.87,1.93-2.37,4.39-3.52,5.96.63.63,1.1,1.1,1.12,1.12.84-.84,1.68-1.68,2.38-2.38-.21-.07-.79-.27-1.51-.52.42-1.15.81-2.21,1.52-4.18ZM455.47,560.33c1.74,3.09,4.62,1.46,7.06,1.76.41.05,1.78-.61,1.27-2.16-2.74,1.83-5.44,1.61-8.33.4ZM577.79,426.09c.18-.11.36-.23.54-.34-.2-.52-.28-1.16-.63-1.55-1.09-1.21-2.22-2.39-3.46-3.43-.45-.38-1.25-.37-2.67-.73,2.51,2.44,4.36,4.25,6.21,6.05ZM475.05,576.03l.02-.49c-1.78-.45-3.55-.97-5.35-1.33-1.3-.25-1.78.39-1.24,1.82h6.58ZM380.89,540.41c-.14,1.28-1.45,2.75.04,3.99,0,0,2.12,3.47,2.5,4.09-.99-3.13-1.76-5.61-2.54-8.08ZM353.79,423.83q-.48,3.07,2,4.39c1.12-2,.28-3.21-2-4.39ZM595.65,375.46c1.44.66,2.4,1.1,3.62,1.66-.08-1.53-.14-2.74-.25-4.79-1.41,1.32-2.24,2.08-3.37,3.14Z"/>
        <path class="cls-2" d="M210.26,707.01c.04-.65.06-1.1.09-1.52.39-.12.75-.37.97-.28.56.24,1.07.93,1.59.92,5.53-.09,11.04,2.22,16.47.92,5.05-1.2,10.03-.54,15.03-.9,1.38-.1,2.73-.5,4.58-.86.21.25.7.84,1.38,1.66-2.8.42-5.47,1.28-8.07,1.1-2.85-.2-5.31,1.2-8.05,1.14-2.65-.06-5.31.11-7.96-.05-2.73-.16-5.46.45-8.22-.53-2.47-.87-5.16-1.1-7.8-1.62Z"/>
        <path class="cls-2" d="M496.42,370.46c-2.06,2.43-3.89,4.74-5.88,6.89-2.27,2.44-4.64,4.77-7.05,7.06-2.15,2.04-3.87,4.49-6.23,6.37-1.28,1.02-1.75,3.06-3.86,3.15-.06-.41-.27-.88-.14-1.01,3.98-3.95,6.44-9.37,11.74-12.08.93-.48,1.46-1.7,2.24-2.52,2.57-2.72,5.15-5.43,7.77-8.11.12-.12.59.09,1.41.25Z"/>
        <path class="cls-2" d="M233.3,721.82c-.55.12-1.23.51-1.62.32-2.19-1.07-4.35-2.23-6.43-3.5-.57-.35-.83-1.21-1.86-2.82,4.01,1.98,6.98,3.46,9.96,4.93-.02.36-.03.71-.05,1.07Z"/>
        <path class="cls-2" d="M391.23,333.19c-2.07,1.76-4.14,3.51-6.78,5.76.43-3.51,2.59-4.88,4.16-6.67,1.85-2.1,4.52-2.76,6.77-4.15,2.12-1.3,4.37-2.04,6.77-2.95-1.62,0-3.25.13-4.85-.04-1.38-.14-2.73-.6-4.08-.97-1.19-.32-2.52-.47-3.53-1.1-3.62-2.26-6.94-6.53-9.53-11.42-1.74-3.29-3.95-6.35-4.24-10.25-.03-.42-.59-.78-.66-1.21-.38-2.35-.86-4.71-.98-7.08-.17-3.32-.07-6.66-.03-9.99.02-1.58-.31-3.18.9-4.65.38-.46-.25-1.74-.5-3.07,1.68-.94,1.67-3.3,2.56-5.21,2.33-5.04,5.05-9.68,11.19-12,1.13,0,2.96-.04,4.78.01,1.62.05,3.26.09,4.86.33,1.37.2,2.8.49,4.04,1.08,1.4.66,2.67,1.65,3.92,2.59,4.66,3.48,9.14,7.09,10.25,13.32.16.89.84,1.71.93,2.59.18,1.74,0,3.42.95,5.13.7,1.28-.29,3.07.98,4.62.65.8.11,2.57.11,3.9,0,3.33-.21,6.68.05,9.99.44,5.56-1.97,10.21-4.77,14.52-4.56,7.01-4.57,5.68-11.57,8.62,1.24.2,2.16.35,3.2.52-.28.54-.51.99-.91,1.78h12.3q-2.23,1.99-5.94,2.14c-1.44,3.72-4.96,6.11-6.36,9.86-2.89,2.87-6.06,5.49-7.27,9.67-.19.66-1.4,1.02-2.35,1.67.2-4.16,4.14-9.74,14.68-21.12-5.06-.86-9.6.66-13.58,3.05-2.31,1.39-3.69,4.34-5.48,6.59-.79,1-1.51,2.08-2.41,2.96-.26.26-1.06-.04-2.03-.11,2-2.84,3.72-5.27,5.44-7.71,1.34-1.16,2.69-2.31,4.03-3.47-2.37-.21-3.52,1.44-5.03,2.47ZM388.13,304.19c-1.26,1.05-2.14,1.79-2.9,2.42,0,1.39-.09,2.56.02,3.71.24,2.54.44,5.41,2.1,7.18,2.05,2.2,4.55,4.34,7.89,4.67,1.25.12,2.63-.36,3.54.96.9-1.43,2.35-.74,3.58-.97,1.52-.29,3.23-.39,4.45-1.2,1.63-1.07,3.14-2.55,4.2-4.18,1.06-1.63,1.31-3.78,2.28-5.49,1.07-1.9-.35-3.34-.26-4.98-3.9-.5-7.42.24-10.93,1.44-1.11.38-2.61.49-3.64.05-2.12-.9-4.05-2.26-6.36-3.61h-3.96ZM407.27,266.19c-.85,0-2.02.07-3.18-.01-3.96-.29-6.3,1.35-7.99,5.12-1.72,3.83-.47,7.12.36,10.61.73,3.06,3.51,3.81,5.88,4.85,3.97,1.73,10.39-1.05,10.75-5.12.49-5.6,1.03-11.64-5.82-15.45Z"/>
        <path class="cls-2" d="M274.23,309.65c0,2.49.26,5.02-.08,7.47-.29,2.1-1.37,4.08-1.9,6.17-1.35,5.36-4.97,10.54-12.27,12.54-3.89,1.07-7.96.65-11.72-1.12-3.32-1.56-5.88-3.75-8.2-6.84-3.74-4.99-6.31-10.27-7.98-16.21-.81-2.88-1.57-5.75-1.81-8.7-.22-2.64-.06-5.32-.04-7.98.06-7.09,2.14-13.59,6.17-19.37,1.54-2.21,3.98-3.52,6.59-4.46,2.6-.93,4.97-1.54,7.74-.12,1.74.89,4.17.39,5.96,1.23,5.34,2.49,9.58,6.41,12.48,11.56,1.04,1.84,1.51,4.04,2.03,6.13.49,1.98.2,4.34,1.17,5.98,1.1,1.87.88,3.92,1.64,5.83.91,2.3.22,5.23.22,7.89h.02ZM244.48,313.25c-.71.95-1.61,1.9-2.23,3.01-2.86,5.15-.17,10.93,4.85,14.88,3.73,2.95,8.31,1.98,12.62,1.99.53,0,1.08-.58,1.58-.96,3.09-2.35,6.55-4.56,7.71-8.43.7-2.34,2.29-4.94.7-7.73-4.45,1.53-7.76,5.95-13.16,4.07-1.85-1.31-3.69-2.86-5.41-4.53-1.7-1.65-3.6-2.62-6.65-2.31ZM262.79,298.17c1.53-1.11,3.06-2.23,4.24-3.09.58-2-.57-3.75.92-5.16.25-.24.31-.93.17-1.31-1.24-3.36-1.96-6.97-5.2-9.31-1.88-1.36-4.14-3.02-5.99-1.93-2.11,1.24-6.17,1.01-5.7,5.22-1.86,1.58-.91,3.7-.95,5.55-.08,4.08,1.89,7.07,5.46,9.06,2.08,1.16,4.32,1.02,7.05.97Z"/>
        <path class="cls-2" d="M269,201.19c3.28-2.92-.87-5.07-.76-7.79.6-.1,1.06-.18,1.21-.2,1.24,1.84,2.32,3.56,3.5,5.19,4.64,6.39,10.3,11.77,16.55,16.54,2.26,1.72,4.45,3.68,6.97,4.88,5.15,2.45,9.55,6.46,15.38,7.49,6.26,4.19,13.75,5.4,20.49,8.45,1.4.63,2.93.97,5.01,1.65-.71-1.72-2.04-2.37-2.79-3.42-.82-1.14-1.5-2.39-2.33-3.52-2.22-3.03-3.94-6.45-5.57-9.71-1.9-3.8-4.73-6.93-6.53-10.76-.93-1.98-3-3.46-4.67-5.06-1.05-1-1.58-2.02-1.04-3.45,8.88,8.69,19.68,15.02,28.8,23.7-.06.15-.22.59-.56,1.52-5.09-3.31-10-6.5-14.92-9.69,3.82,5.18,6.86,10.72,11.11,15.42,3.13,3.45,5.6,7.52,9.05,12.26-1.63-.7-2.3-.91-2.89-1.26-3.65-2.15-7.73-3.26-11.76-4.14-3.82-.83-7.49-2.14-11.25-2.99-3.81-.86-7.16-3.29-11.22-3.14-2.02-2.5-5.3-2.49-7.85-3.98-7.53-4.39-15.19-8.57-21.3-15.01-.58-.61-.8-2.91-2.87-1.27-.54.42-1.57-1.51-2.99-1.85-3.1-.73-5.93-2.22-8.51-5.64.57,7.18,3.38,12.72,5.73,18.45-1.39,1.05-2.38-.42-2.57-1.15-.7-2.65-2.63-3.93-4.56-5.59-5.3-4.56-9.97-9.79-13.6-15.81-2.37-3.93-4.44-8.04-7.05-12.81.34,5.53-.85,10.38,1.21,15.6-.92-.22-2-.22-2.12-.56-1.1-3.06-4.12-5.24-4.07-8.81-3.25-3.1-2.74-7.55-3.91-11.36-2.25-7.35-2.52-15.01-2.01-22.63.27-4.08,1.29-8.1,1.97-12.15,1.8-1.38.51-3.41,1.12-5.21.35-.09.8-.21,1.55-.4,1.15,5.3-1.4,10.29-.77,15.46.63,5.21-.28,10.49.53,15.77.76,4.99,1.88,9.88,3.25,14.85.09-.85.26-1.7.27-2.55.04-2.66.01-5.33.01-8,0-3.66-.17-7.34.05-10.99.2-3.35.83-6.67,1.25-9.9,1.64,1.25,1.68,1.25,1.69,2.37.03,2.5-.14,5.01.05,7.49.16,2.04-.65,4.07.79,6.19,1.08,1.59-.84,4.25,1.16,5.98,2.06,13.26,8.05,21.18,12.11,27.95,1.29,2.15,3.57,3.71,5.89,6.02-.44-2.49-.64-4.32-1.11-6.07-.48-1.78-1.35-3.45-1.85-5.22-.51-1.82.51-3.75-.83-5.68-1.04-1.5.18-3.7-.69-5.68-.73-1.68-.67-3.87-.43-5.77.22-1.76-2.55-3.3.05-5.47.69,1.33,1.59,2.41,1.82,3.63,1.21,6.3,3.56,12.15,6.57,17.78.04.07.32,0,.26.02,1.46,1.92,1.9,4.65,5.87,5.2-2.26-2.25-2.29-5.39-5.87-5.2Z"/>
        <path class="cls-2" d="M431,299.66c-.81-1.18-1.59-1.84-1.71-2.59-.22-1.47-.06-2.99-.06-4.49,0-6.1-2.1-15.33-5.03-20.89-3.02-5.73-6.09-11.4-10.86-16.02-3.15-3.05-7.26-4.51-10.53-7.28-.83-.71-2.4-.63-3.65-.76-7.86-.84-15.52-1.26-22.63,3.61-5.68,3.89-10.1,11.35-12.34,18.34-.65,2.02-1.04,3.97-1.02,6.09,0,.84-.71,1.68-1.42,2.46-.36-4.11-1.37-8.19.48-12.18.92-1.98,1.06-4.17,1.84-6.23,2.54-6.75,4.77-9.55,9.86-13.86,6.58-5.57,14.24-6,22.14-5.6,2.08.11,4.21,1.05,6.15,1.96,4.25,2,8.44,3.88,12.03,7.26,6.52,6.14,11.02,13.51,14.95,21.35.89,1.77,1.49,3.76,1.85,5.71.96,5.11,1.95,10.36.99,15.46-.43,2.31-.53,4.7-1.04,7.64Z"/>
        <path class="cls-2" d="M268.27,276.2c-1.62-1.81-2.63-3.77-4.22-4.55-3.96-1.94-6.77-5.47-10.91-7.18-3.31-1.36-6.79-2.06-10.13-3.25-1.91-.68-3.69.77-5.56.93-8.79.77-13.95,4.6-18.29,12.38-3.42,6.14-5.1,12.54-4.86,19.44.11,3.2-.99,6.55.86,9.61-2.67,2.74.84,5.37.18,8.14-.21.86.64,1.97,1.05,3.09-.63.18-1.07.31-1.95.56.32-2.92-1.76-4.87-2.35-7.52-.57-2.55-.92-5.19-1.65-7.75-.79-2.77-.28-5.94-.15-8.93.11-2.71-.07-5.35.77-8.13.75-2.49,1.52-5.08,2.06-7.63.79-3.73,3.12-6.49,5.03-9.39,1.99-3.01,5.23-5.01,8.47-6.97,5.64-3.41,11.61-4.42,17.88-3.76,2.66.28,5.36,1.57,7.71,2.96,3.25,1.92,6.74,3.68,9.23,6.64,2.35,2.8,4.55,5.74,6.68,8.72.38.53.13,1.52.18,2.58Z"/>
        <path class="cls-2" d="M200.04,262.57c-.69-1.18-1.2-2.07-1.77-3.04.56-.2,1.14-.4,1.72-.61.82-8.28,2.57-16.32,6.25-23.85,3.99-8.16,8.56-12.78,15.69-16.11,2.31-1.08,4.61-1.97,7.24-1.81,2.32.14,4.66-.1,6.98.07,2.2.16,4.4.54,6.57.99,1.68.35,3.23,1.18,5.06,1.13.55-.01,1.13,1.35,2.09,2.59-1.85.11-3.1.15-4.35.25-7.54.65-14.49,2.67-20.05,8.21-1.7,1.69-3.54,3.35-5.59,4.56-5.34,3.13-8.56,8.04-11.6,13.11-1.59,2.65-3.3,5.21-4.73,7.99-1.03,2.01-1.08,4.59-3.5,6.51ZM207,244.07c1.81-2.33,2.83-3.8,4.01-5.12,1.44-1.6,3.03-3.07,4.56-4.6,1.41-1.41,2.76-2.89,4.25-4.21,1.43-1.27,2.93-2.47,4.52-3.51,1.69-1.1,3.63-1.7,5.22-3.11,1.13-1.01,2.95-1.24,5.08-2.07-5.63-.98-9.93.85-13.54,3.57-3.38,2.55-7.01,5.1-9.18,8.99-1.62,2.9-4.03,5.42-4.93,10.06Z"/>
        <path class="cls-2" d="M422.23,127.73c5.6,5.41,10.31,10.7,14.51,16.44,1.32,1.81,2.75,3.56,4.24,5.24,3.25,3.67,6.59,7.26,9.87,10.9,2.72,3.03,5.29,6.21,8.16,9.08,2.87,2.87,6,5.51,9.12,8.12.92.77,2.27,1,3.27,1.7.82.57,1.43,1.46,2.83,2.96-1.64-.15-2.34,0-2.73-.28-7.91-5.72-15.5-11.8-22.08-19.05-1.84-2.03-3.54-4.19-5.31-6.29-1.77-2.1-3.72-4.07-5.24-6.33-1.5-2.22-3.43-4.08-4.75-6.5-1.28-2.36-3.41-4.27-5.2-6.35-2.21-2.59-4.47-5.14-6.67-7.74-.16-.19-.02-.64-.02-1.91Z"/>
        <path class="cls-2" d="M352.82,353.42c1.36,5.83-1.47,9.46-4.65,12.07-3.93,3.22-8.53,5.56-14.07,5.9-2.64.16-5.38.91-8.09.75-2.03-.12-4.04-.72-6.49-1.19-1.15-1.97-4.72-2.89-4.27-6.52.62-.12,1.14-.32,1.2-.22,2.42,3.84,5.99,4.98,10.37,5.04,6.54.09,12.5-2.06,17.81-5.27,3.51-2.11,6.75-5.37,8.2-10.57Z"/>
        <path class="cls-2" d="M405.19,339.19h8.5c2.91-2.42,4.12-6.55,8.81-8.58-1.99,3.11-3.37,5.55-5.04,7.79-1.72,2.32-3.45,4.75-5.65,6.55-2.28,1.87-2.64,5.62-6.52,6.4.54-1.24.77-2.25,1.34-3.01,1.74-2.31,3.6-4.52,5.59-6.98-1.06-.06-2.14-.14-3.22-.17-1.14-.03-2.28,0-3.62,0-.07-.75-.12-1.37-.18-2Z"/>
        <path class="cls-2" d="M248.16,361.87c.17-.88.11-1.91.56-2.61,4.54-7.02,8.75-14.34,16.33-18.83-5.41,7.22-10.82,14.44-16.23,21.66-.22-.07-.44-.15-.66-.22Z"/>
        <path class="cls-2" d="M322.17,340.15c-3.05-1.11-3.65-2.08-3.94-6.11q2.46-2.81,4.67-3.82c1.33,2.21-2.17,2.57-1.7,4.47.41,1.64.6,3.34.96,5.46Z"/>
        <path class="cls-2" d="M270.04,351.48c-1.5,4.54-3.72,8.55-8.11,12.34,1.73-5.51,4.31-9.33,8.11-12.34Z"/>
        <path class="cls-2" d="M243.7,339.55c-3.44,4.43-6.19,7.97-8.96,11.54-1.75-1.55-.15-3.07.57-4.02,2.05-2.72,4.24-5.43,8.39-7.51Z"/>
        <path class="cls-2" d="M427.34,337.5q-3.08,6.43-8.09,10.67c.31-3.81,3.54-5.59,4.99-8.41.41-.8,1.58-1.2,3.1-2.27Z"/>
        <path class="cls-2" d="M250.91,617.2c7.55,1.51,14.39,2.51,21.01,4.3,6.4,1.73,12.88,3.15,19.12,5.56,6.29,2.43,13.11,3.44,19.87,6.56-2.07.66-3.3.44-4.78.09-5-1.2-9.94-2.62-14.99-3.65-2.99-.61-6.11-.75-9.01-2.29-2.68-1.42-5.93-1.78-8.92-2.45-5.31-1.19-10.4-3.09-15.68-4.35-1.95-.46-3.86-1.11-5.72-1.83-.37-.14-.47-.97-.9-1.93Z"/>
        <path class="cls-2" d="M371.56,524.19c-3.86,4.89-8.61,6.56-13.99,5.92-3.71-.44-7.58-.72-11-2.26-1.52-.68-2.71-.57-4.02-.46-1.68,5.87-1.2,12.13-4.04,17.71.05-3.37-.68-6.66.28-10.08.84-3.02.93-6.24,1.33-9.26,2.04-1.42,4.79-1.27,6.11-3.79,1.73,3.18,4.48,4.14,7.72,4.25,1.24.04,2.64-.54,3.67.8.2.26.99.31,1.38.15,3.34-1.35,7.32-.18,10.38-2.61.23-.18.55-.29.85-.34.32-.06.66-.01,1.33-.01Z"/>
        <path class="cls-2" d="M289.15,616.68c.12-.5.22-.95.41-1.75,1.39.69,2.6,1.3,3.81,1.9,10.06,4.98,20.36,9.47,31.05,12.88,4.25,1.35,8.35,3.55,13.03,3.55.6,0,1.21.91,2.03,1.57-3.68,1.17-6.77-.98-10.04-.94-1.41-1.66-3.46-.03-5.07-1.01-1.44-.88-3.04-1.38-4.74-1.83-3.52-.95-6.85-2.68-10.21-4.19-6.88-3.09-13.42-6.87-20.26-10.17Z"/>
        <path class="cls-2" d="M372.67,537.37c-.96,4.05-3.67,4.48-5.46,5.75-2.97,2.11-6.57,2.53-10.08,2-3.5-.52-7.04-1.36-9.94-3.58-.87-.67-2.5-1.29-1.78-3.07,8.87,4.93,17.68,5.65,27.26-1.1Z"/>
        <path class="cls-2" d="M208.14,479.46c.89-.23,1.34-.35,2.1-.55.11-2.85-2.23-5.71-.26-9.25,2.84,12.91,8.61,23.82,17.3,33.12-.05.71-.08,1.36-.16,2.01-.02.13-.22.24-.22.24-2.98-3.54-6.2-6.92-8.88-10.68-2.45-3.45-4.31-7.32-6.84-11.71.33,6.35,3.8,10.78,5.85,15.63,2.02,4.81,5.25,9.1,8.22,14.07-.91-.34-1.79-.4-2.14-.85-2.02-2.63-4.01-5.3-5.85-8.06-3.36-5.05-5.83-10.54-7.57-16.34-.72-2.4-1.01-4.92-1.55-7.64Z"/>
        <path class="cls-2" d="M393.95,506.18h-1.48c-.08-.56-.35-1.22-.2-1.76.92-3.51.87-7.16,1.72-10.72.61-2.54,1.2-5.33,1.17-7.99-.07-5.66,2.29-10.98,2.08-16.62,1.64-2.73.84-6.16,2.95-9.57-.28,3.83.96,7.02-.85,10.09-.15.25-.07.63-.1.95-.33,4.02-.38,8.08-1.07,12.04-.81,4.62-1.3,9.3-2.6,13.85-.86,3.02-1.05,6.23-1.61,9.73Z"/>
        <path class="cls-2" d="M295.16,432.34c.78-.08,1.26-.27,1.4-.13,3.04,3.07,7.05,4.67,10.57,7,2.48,1.65,4.81,3.54,7.04,5.65-3.18-.94-6.57-.97-9.27-3.42-2.82-2.56-6.02-4.71-8.97-7.13-.45-.37-.49-1.23-.76-1.97Z"/>
        <path class="cls-2" d="M332.22,445.13c.1-.76.07-1.56.22-1.6,6.51-1.45,12.63-4.29,19.25-5.33.44-.07.92.1,2.35.29-4.11,1.81-7.32,3.45-10.69,4.64-3.51,1.23-7.14,2.33-11.13,2Z"/>
        <path class="cls-2" d="M435.25,535.67c-.75.75-1.37,1.86-2.27,2.17-2.32.81-4.08,2.18-5.08,4.52-.61-.61-.85-.85-1.09-1.09-2.18,1.46-3.46,4.09-6.81,5.51.32-1.37.28-2.05.6-2.42,3.16-3.63,7.22-6.08,11.37-8.38.87-.48,1.92-.64,2.89-.95.13.21.25.43.38.64Z"/>
        <path class="cls-2" d="M473.64,290.27c4.07-.48,7.65.11,10.12,4.85-1.24-.21-2.02-.13-2.51-.46-2.91-1.99-4.68-2.15-7.15.24-2.27,2.21-4.17,4.81-6.37,7.41,1.63,1.4,3.17.85,4.5.83,1.98-.02,3.94.24,4.92,1.96,1.37,2.4,3.12,4.9,1.69,7.96-1.51,3.21-3.38,6.14-6.45,8.1-.18.12-.59-.12-1.24-.27.16-.55.22-1.16.51-1.61.55-.86,4.24-7.54,4.16-8.24-.12-1.14-.53-2.25-.94-3.86-2.15,0-4.59-.06-7.02.02-1.72.06-5.2,2.54-6.67,4.34-.61.76-1.56,1.24-2.8,2.18,1.09-3.42,1.8-6.19,2.87-8.82,1.43-3.51,3.82-6.48,6.2-9.39,1.28-1.57,2.2-3.73,4.77-3.91.5-.03.95-.88,1.41-1.34Z"/>
        <path class="cls-2" d="M487.23,558.38c-1.04,2.43-2.97,1.88-5.62,1.51,1.06-1.04,1.69-1.67,2.5-2.48-1.89-.14-3.86-.28-5.73-.42-.89-2.82,2.66-.95,2.18-3,2.57,1.27,5.5,1.08,6.67,4.38Z"/>
      </g>
      <g>
        <path class="cls-1" d="M632.39,326.63c10.28-8.61,11.34-18.76,7.73-27.16-2.1-4.87-5.98-8.18-10.55-9.72-16.74-5.62-33.11-5.82-47.97,5.59-1.41,1.08-2.55,2.52-3.81,3.8-1.33,1.34-2.47,2.77-1.48,4.79.88,1.81,2.43,2.32,4.4,2.45,9.56.63,23.41-9.7,25.47-19.11"/>
        <path class="cls-1" d="M624.93,350.63c-6.91-7.9-20.62-9.22-28.18-2.71-2.45,2.11-1.53,6.61,1.89,8.36,2.95,1.51,5.99,2.1,9.51,2.07,9.71-.07,24.39-10.52,26.33-21.07.72-3.92.14-7.16-2.3-10.18"/>
        <path class="cls-1" d="M608.52,285.56c-.46-4.3-.9-8.92-5.02-11.24-5.69-3.2-11.93-5.18-18.61-4.72-6.58.46-12.35,2.63-16.6,8.11-.78,1.01-1.81,2.43-1.58,3.03.47,1.25,2.07,1.65,3.52,1.62,4.54-.1,8.65-1.96,10.4-5.91,1.45-3.27,1.65-7.12-.98-10.91-2.81-4.04-6.39-5.08-10.55-4.74-4.86.4-8.52,3.99-12.85,5.87"/>
        <path class="cls-1" d="M625.53,353.05c1.24,5.1.62,9.75-3.91,12.98-5.56,3.96-10.04,3.75-16.13-.29"/>
      </g>
      <g>
        <path class="cls-1" d="M678.98,364.73c2.9,8.98,10.66,11.58,18.53,13.37,5.87,1.33,12,1.01,18.36-.57-6.98-8.05-14.31-15.38-24.9-18.26-7.74-2.1-8.75-2.11-11.99,4.97"/>
        <path class="cls-1" d="M758.48,360.23c-11.59,3-18.64,11.31-25.36,21.74,10.76.29,20.69,1.67,29.37-5.23,5.99-4.77,6.62-14.22-3.51-16.51"/>
        <path class="cls-1" d="M724.98,374.73c5.32-10.01,7.6-20.66,7.07-32-.16-3.51-.74-7-2.26-9.9-1.42-2.72-4.17-5.3-7.81-5.02-3.86.3-5.85,3.08-7.57,6.4-5.93,11.42-2.98,24.98,4.59,33.51,1.48,1.67,3.31,3.02,4.97,4.52"/>
        <path class="cls-1" d="M728.98,388.23c10.47,5.91,17.4,14.33,19.6,26.48.75,4.15-.07,7.68-3.2,9.87-2.86,2-6.46,1.07-9.39-.87-10.62-7.03-16.54-22.21-7.51-34.98"/>
        <path class="cls-1" d="M714.48,387.23c-9.49,3.3-18.14,7.99-24.97,15.53-2.27,2.5-4.27,5.13-5.71,8.39-1.74,3.96-.34,7.16,1.85,9.41,2.33,2.39,5.85,2.11,9.37.78,6.77-2.56,10.86-7.61,13.89-13.65,2.67-5.33,4.83-10.93,7-16.49.48-1.22,1.79-3.24-.93-3.97"/>
      </g>
      <path class="cls-1" d="M665.24,523.79c-3.88,4.91-4.01,7.99-.5,11.5,3.61,3.61,11.92,4.16,15.99.99,3.22-2.52,5.3-5.74,4.46-9.98-.78-3.91-6.45-8.59-10.45-9.01-15.7-1.65-23.38,10.75-21.47,23.49,1.42,9.47,5.81,16.9,15.49,19.95,3.59,1.13,7.32,1.01,10.99-.41,13.61-5.28,21.82-15.68,25.8-29.09,3-10.1-2.19-17.03-11.77-22.01-18.29-9.5-45.38-1.66-49.77,25.11-2.4,14.63,1.4,25.81,15.35,34.28,14.63,8.89,27.41,7.64,39.83-1.41,12.79-9.32,21.47-22.2,24.76-37.48,2.78-12.9-1.62-24.92-11.23-34.4-8.81-8.69-19.72-12.74-31.97-12.46-22.1.51-45.04,18.52-50.38,39.96-3.51,14.07-.26,27.64,5.94,40.44,4.15,8.56,8.82,16.94,16.96,22.5,10.54,7.2,22.13,8.11,34.5,6.14,15.54-2.48,28.09-9.87,37.36-22.2,8.43-11.2,13.2-23.95,11.66-38.41-.12-1.14.3-2.33.46-3.5"/>
      <g>
        <path class="cls-1" d="M99.67,580.93c1.72-6.51,2.88-13.13-1.56-18.95-5.5-7.21-13.07-7.39-22.39-4.4-2.97.95-5.17.8-8.09-.01-9.44-2.64-16.68-1.4-23.96,7.86"/>
        <path class="cls-1" d="M19.67,585.43c-8.73,2.3-15.22,8.23-15.34,15.5-.11,6.74,2.32,13.08,7.9,17.42,2.71,2.1,3.51,3.96,1.99,7.1-1.54,3.18.32,6.03,1.4,8.99,2.25,6.18,7.51,9.24,12.63,12.35.93.56,3.1,1.38,4.42-.37"/>
        <path class="cls-1" d="M68.67,641.93c-2.64,2.42-6.46,3.11-8.61,6.43-1.3,2.01-10.2,2.04-12.39.57-2.28-1.53-5.14-10.01-3.87-12.95.58-1.34.98-2.68,1.37-4.05"/>
        <path class="cls-1" d="M36.17,558.93c-9.13-6.62-18.13-5.02-22.5,4"/>
        <path class="cls-1" d="M94.17,586.93c-.44-7.75-3.48-13.84-11.01-16.97-.57-.24-1.32-.03-1.99-.03"/>
        <path class="cls-1" d="M83.67,640.93c-3.36,6.13-9.09,8.53-15.49,10.05-2.32.55-4.44.8-6.51-.55"/>
        <path class="cls-1" d="M22.17,627.43c-2.04,5.26-.68,10.89,3.52,13.98,1.48,1.09,3.2,1.47,4.98.52"/>
        <path class="cls-1" d="M34.17,557.93c-8.27,4.2-8.85,16.86-2,24.5"/>
        <path class="cls-1" d="M31.17,630.93c-3.27,3.83-2.88,7.69,0,11.49,3.67,4.82,8.48,6.78,14.49,5.51"/>
        <path class="cls-1" d="M78.17,602.43c-2.83-.35-5.39,1.12-7.94,1.75-5.98,1.5-12.28.95-18.09,3.19-.32.12-.98-.61-1.48-.94"/>
        <path class="cls-1" d="M40.17,617.43c4.5,1.83,9,3.67,13.5,5.5"/>
        <path class="cls-1" d="M89.67,631.93c-4.33-1.83-8.7-3.59-12.98-5.54-1.69-.77-3.34-.37-5.02-.46"/>
        <path class="cls-1" d="M70.17,559.43c-5.37,2.2-8.2,6.47-8.4,12-.27,7.29-6.56,10.19-10.34,14.8-1.11,1.36-4.7-.08-6.36-2.74-.94-1.51-1.53-3.76-3.9-4.06"/>
        <path class="cls-1" d="M59.67,599.93c4.18-4.11,10.26-4.64,17-1.5"/>
        <path class="cls-1" d="M37.17,617.93c-3.76-.26-7.26.51-10.52,2.47-1.05.63-2.32,1.85-3.48.03"/>
        <path class="cls-1" d="M80.67,613.43c-3.29-.98-6.56-1.01-10.01-.63-3.01.33-5.01,1.26-5.99,4.13"/>
        <path class="cls-1" d="M40.67,562.93c4.32,6.12,2.55,14.55-4,18.99-.8.54-1.66,1.01-2.5,1.51"/>
        <path class="cls-1" d="M83.17,612.93c-3.51,3.86-6.38,8.41-11.5,10.5"/>
        <path class="cls-1" d="M22.17,586.43c5.87.16,11.44,1.37,16.5,4.5"/>
        <path class="cls-1" d="M95.67,587.43c-2.19,1.43-3.39,3.12-4.26,5.92-1.32,4.21-5.47,6.71-9.24,9.08"/>
        <path class="cls-1" d="M68.17,586.93c5.22,8.12,12.41,9.83,21.01,5.02.58-.32,1.32-.35,1.99-.52"/>
        <path class="cls-1" d="M54.67,556.43c-4.33-2.51-12.7-2.04-18,1"/>
        <path class="cls-1" d="M80.17,569.43c-5.09.16-8.83,2.56-12.09,6.43-2.16,2.56-1.04,5.45-1.74,8.12-.34,1.28,1.26,2.46,3.34,2.03,2.5-.52,4.95-.91,6.98-2.58"/>
        <path class="cls-1" d="M39.67,574.43c-3.77-.75-7.51-1.25-11,1"/>
        <path class="cls-1" d="M55.67,598.43c-1.83,1-3.73,1.9-5.49,3.02-3.14,2-6.04,2.9-10.07,1.65-6.45-1.99-14.25,2.94-15.8,9.86-1.02,4.56-3.15,6.76-7.64,6.99-.51.03-1,.31-1.5.48"/>
        <path class="cls-1" d="M73.17,559.43c7.93,4.93,11.07,15.5,5.5,22"/>
        <path class="cls-1" d="M53.67,634.43c3.19-1.49,3.68-3.89,2.52-7.01-2.86-7.69-2.8-7.66,4.95-10.57.71-.27,1.35-.31,2.14-.45.74.18,1,.82,1.46,1.48,1.29,1.86,2.79,3.94,1.81,5.98-1.26,2.64-4.16,2.74-6.88,2.57-2.71-.17-5.01.73-7.59,1.77-5.78,2.34-11.47,7-18.41,3.22"/>
        <path class="cls-1" d="M51.67,586.93c1.5,4.31,1.87,9.81,5.7,12.17,2.55,1.57,2.74,3.44,3.8,5.33"/>
        <path class="cls-1" d="M44.17,608.43c-6.64,2.88-5.54,9.89-7.96,15.02-.42.88-.37,1.98-.54,2.98"/>
        <path class="cls-1" d="M78.17,583.93c2.53,4.07,1.89,8.29.48,12.49-.8,2.39-.71,4.57,1.02,6.5,2.45,2.71,3.8,5.8,4.05,9.5.18,2.72,2.59,4.35,3.95,6.5"/>
        <path class="cls-1" d="M67.17,624.43c4.97.44,5,4.62,5.96,8.01.41,1.43.37,2.99.54,4.49"/>
        <path class="cls-1" d="M35.17,613.43c-3.73-.57-6.94,1.66-10.5,2"/>
        <path class="cls-1" d="M80.67,640.93c-3.04,2-6.07,4.04-10,2.5"/>
        <path class="cls-1" d="M42.67,575.93c3.52.07,7.27-.73,10,2.5"/>
        <path class="cls-1" d="M86.17,617.93c-.67,3.17-1.33,6.33-2,9.5"/>
        <path class="cls-1" d="M41.67,594.93c2.32,2.4,2.39,5.63,2.36,8.5-.04,3.86,1.11,6.39,4.61,8.06,1.34.64,2.36,1.94,3.53,2.94"/>
        <path class="cls-1" d="M50.17,624.43c-2.84.99-6.22.42-8.5,3"/>
        <path class="cls-1" d="M57.17,607.43c-.78,3.02-1.26,6.18-4,8.25"/>
        <path class="cls-1" d="M28.67,607.43c2.83,1,5.67,2,8.5,3"/>
        <path class="cls-1" d="M24.17,594.93c-2.88-.03-5.75-.08-8.35,1.15-2.27-2.14-.2-5.02-1.65-7.15"/>
        <path class="cls-1" d="M27.67,575.43c-3.41,2.24-4.42,6.48-7.29,8.83,1.99,7.67,5.86,14.04,12.29,18.67"/>
        <path class="cls-1" d="M36.17,597.93c-3.02.57-5.29-3.16-8.5-1.5"/>
        <path class="cls-1" d="M34.17,589.43c-.62,3.26.94,6,2.61,8.42,1.01,1.48,2.14,2.75,2.39,4.58"/>
        <path class="cls-1" d="M57.17,632.93c1.9,3.82,7.05,3.74,9,7.5"/>
        <path class="cls-1" d="M23.67,581.43c3.32.56,6.65,1.12,10.07,1.69.57,1.59,1.1,3.38.93,5.31"/>
        <path class="cls-1" d="M84.17,630.93c-2.28,2.78-5.45,4.71-8.58,5.75-2.44.81-3.68,2.42-5.42,3.75"/>
        <path class="cls-1" d="M24.17,621.93c.52,5.77,4.38,7.91,9.52,5.54,4.03-1.86,7.22.04,9.98,2.96"/>
        <path class="cls-1" d="M64.17,605.93c1.4,2.34,1.11,5.35,3,7.5"/>
        <path class="cls-1" d="M44.67,577.43c2.87,1.24,3.76,4.62,6.5,6"/>
        <path class="cls-1" d="M69.67,575.43c3.03,1.11,5.4,3.12,7.5,5.5"/>
        <path class="cls-1" d="M59.17,557.43c1.33,2.33,2.67,4.67,4,7"/>
        <path class="cls-1" d="M68.17,575.43c-1.86-1.08-3.91-1.35-6-1.5"/>
        <path class="cls-1" d="M24.67,625.93c-3.32,2.25-5.89.25-8.5-1.5"/>
        <path class="cls-1" d="M90.17,632.93c2.47,3.47,1.11,6.74-.5,10"/>
        <path class="cls-1" d="M89.67,623.93c.3,2.05-.09,3.92-1.5,5.5"/>
        <path class="cls-1" d="M61.67,581.43c1.41.9,1.92,3,4,3"/>
        <path class="cls-1" d="M83.17,633.43c.17,1.17.33,2.33.5,3.5"/>
        <path class="cls-1" d="M87.67,631.43v3.5"/>
      </g>
      <g>
        <path class="cls-1" d="M5.5,434.53c7.28-3.19,14.99-1.62,22.5-1.88,3.17-.11,4.36,3.26,1.92,5.29-3.03,2.53-6.64,4.36-9.91,6.61-2.15,1.48-5.27,2.06-5.52,5.48"/>
        <path class="cls-1" d="M81.5,387.53c-7.19.62-12.44,5.41-18.53,8.44-4.06,2.03-7.35,5.9-12.47,5.56"/>
        <path class="cls-1" d="M95,413.03c-7.36,4.3-15.19,7.63-22.97,11.07-1.93.85-3.61,1.17-5.53.43"/>
        <path class="cls-1" d="M43,385.03c4.4.23,6.73-3.78,10.46-5.12,4.79-1.72,9.02-5.09,14.96-4.86.46,4.98-3.47,7.06-5.54,9.88-3.19,4.35-7.66,7.78-10.74,12.18-2.84,4.05-5.69,7.94-9.67,10.86-.97.71-.12,1.42-.47,2.04"/>
        <path class="cls-1" d="M82,386.03c-.36,1.36.89,2.27,1.25,3.93-11.95,10.02-20.45,23.82-34.25,32.07"/>
        <path class="cls-1" d="M86,405.03c-4.63-1.44-7.71,2.17-11.52,3.44-3.8,1.26-6.68,5.56-11.48,3.56"/>
        <path class="cls-1" d="M92,402.03c-2.12-.29-3.59,1.03-4.44,2.54-2.95,5.24-8.01,8.17-12.64,11.35-6.31,4.33-10.58,11.41-18.43,13.6-.15.04-.33,0-.5,0"/>
        <path class="cls-1" d="M10.5,415.03c4.88,2.08,10,.61,15,.94,2.12.14,4.2-.1,5.5,2.06"/>
        <path class="cls-1" d="M18,466.03c6.04-5.28,13.26-9.25,18.41-15.73-1.85-2.2-3.99-1.96-5.9-1.72-5.66.7-11.1,2.84-17.02,2.09-1.72-.22-3.82.92-5.43,1.94-1.62,1.03-3.22,1.45-5.05,1.42"/>
        <path class="cls-1" d="M73,442.53c-5.61-.56-9.24,3.9-13.98,5.56-1.8.63-3.35,1.94-5.02,2.94"/>
        <path class="cls-1" d="M34,417.03c-5.87,3.35-10.38,8.75-16.97,11.1-1.36.48-2.5,2.07-2.53,3.9"/>
        <path class="cls-1" d="M86.5,443.03c-2.42,3.18-5.18,5.94-9.5,5.93-1.16,0-1.91.69-2.44,1.14-5.37,4.67-12.6,5.16-18.56,8.43"/>
        <path class="cls-1" d="M23,408.03c-4.5,2.34-9.64,3.12-13.66,6.82-1.87,1.72-5.5,1.51-8.34,2.18"/>
        <path class="cls-1" d="M84.5,461.53c4.02.41,6.5-3.82,10.5-3.53.49.04.66.03.72.65-.59,5.14-5.05,8.12-7.22,12.38"/>
        <path class="cls-1" d="M86.5,455.03c-1.77,8.28-8.36,12.45-14.5,17"/>
        <path class="cls-1" d="M78,441.03c-.5,0-1.22-.22-1.47.03-4.44,4.39-9.85,7.86-13.03,13.47"/>
        <path class="cls-1" d="M91,452.53c-5.29,1.07-10.11,3.59-15.45,4.74-3.44.74-6.38,3.76-9.55,5.76"/>
        <path class="cls-1" d="M116.5,366.53c-2.46,2.7-4.92,5.41-7.61,8.37-1.71-2.05-3.3-3.96-4.89-5.87"/>
        <path class="cls-1" d="M79.5,449.53c-.01,3.39-4.49,4.11-4.5,7.5"/>
      </g>
      <g>
        <path class="cls-1" d="M685.27,187.04c.77-6.7,1.87-13.36,2.84-20.02,2.19-15.05,4.97-30.12,3.64-45.48-.22-2.52-.78-5-2.49-6.99-2.18-2.54-4.87-2.76-7.44-.94-1.6,1.13-2.97,2.77-4.01,4.46-6.79,11.05-10.21,23.23-12.08,35.97-1.05,7.14-2.32,14.25-1.92,21.5.07,1.34-.95,1.72-1.54,2.5"/>
        <path class="cls-1" d="M721.02,140.54c-2.14-2.58-1.41-5.69-1.17-8.49.82-9.24.06-18.35-.97-27.52-.33-2.94-1.02-5.54-3.66-6.35-3.38-1.05-5.23,2.22-6.32,4.43-3.64,7.35-7.44,14.65-10.14,22.43-1.28,3.68-2.67,7.33-3.99,11-.45,1.24-.68,2.65-2.5,2.5"/>
        <path class="cls-1" d="M744.27,161.04c-.96-2.11-.86-4.16-.63-6.51.84-8.81,1.22-17.65-.26-26.51-.55-3.27-2.19-5.74-4.69-6.79-2.53-1.07-4.87,1.28-6.37,3.34-6.99,9.58-13.64,19.24-15.65,31.45-1.83,11.08-4.56,22.02-6.89,33.02"/>
        <path class="cls-1" d="M763.02,174.79c-1.78-4.12.02-8.58-1.23-12.76-.38-1.29-.18-2.67-.37-4.02-.41-2.88-.98-5.86-3.7-6.82-2.64-.93-4.43,1.78-6.48,3.29-8.82,6.49-10.58,16.55-13.44,26.06-.84,2.78-1.36,5.66-2.03,8.49"/>
        <path class="cls-1" d="M662.77,188.04c.26-5.42-.95-10.4-3.89-15.07-.75-1.2-.94-2.43-2.61-2.43s-1.91,1.14-2.6,2.45c-3.51,6.64-4.42,13.73-4.4,21.05"/>
        <path class="cls-1" d="M770.77,195.04c-.37-2.52.74-4.82,1.62-6.95,1.16-2.83,1.35-5.61,1.41-8.55.06-3.02-.75-5.08-4.01-6.08-3.33-1.01-6.17-.03-7.38,2.64-2.26,4.98-3.89,10.29-3.64,15.94"/>
        <path class="cls-1" d="M664.77,101.54c-4.5,4.17-9,8.33-13.5,12.5"/>
        <path class="cls-1" d="M673.77,100.54c-4.15,3.15-8.21,6.4-11.5,10.5"/>
      </g>
    </g>
  </g>
</svg>