<?xml version="1.0" encoding="UTF-8"?>
<svg id="Layer_2" data-name="Layer 2" xmlns="http://www.w3.org/2000/svg" viewBox="0 0 238 130">
  <defs>
    <style>
      .cls-1 {
        fill: #333;
        stroke-width: 0px;
      }
    </style>
  </defs>
  <g id="Layer_1-2" data-name="Layer 1">
    <path class="cls-1" d="M238,80v50h-45c-18.64,0-33.86-14.57-34.93-32.93l-.07-.07v33h-50v-50h33l-.07-.07c-18.37-1.07-32.93-16.3-32.93-34.93V0h50v44.64L202.61.04l35.36,35.36-44.61,44.61h44.64ZM106,34.9C106,15.63,90.37,0,71.1,0h-15.1v95c0,19.33,15.67,35,35,35h15V34.9ZM30,0h0s-30,0-30,0v30h0C16.57,30,30,16.57,30,0ZM40,50C17.91,50,0,67.91,0,90s17.91,40,40,40V50Z"/>
  </g>
</svg>